<?xml version="1.0" encoding="UTF-8" standalone="no"?>
<!-- Created with Inkscape (http://www.inkscape.org/) -->

<svg
   xmlns:dc="http://purl.org/dc/elements/1.1/"
   xmlns:cc="http://creativecommons.org/ns#"
   xmlns:rdf="http://www.w3.org/1999/02/22-rdf-syntax-ns#"
   xmlns:svg="http://www.w3.org/2000/svg"
   xmlns="http://www.w3.org/2000/svg"
   xmlns:sodipodi="http://sodipodi.sourceforge.net/DTD/sodipodi-0.dtd"
   xmlns:inkscape="http://www.inkscape.org/namespaces/inkscape"
   width="550.45056"
   height="148.84648"
   id="svg2"
   version="1.1"
   inkscape:version="0.48.5 r10040"
   sodipodi:docname="open scriptorivm.svg">
  <defs
     id="defs4">
    <clipPath
       id="clipPath4725"
       clipPathUnits="userSpaceOnUse">
      <path
         id="path4727"
         d="m 0,0 595.276,0 0,841.89 L 0,841.89 0,0 z"
         inkscape:connector-curvature="0" />
    </clipPath>
    <clipPath
       id="clipPath4701"
       clipPathUnits="userSpaceOnUse">
      <path
         id="path4703"
         d="m 0,0 595.276,0 0,841.89 L 0,841.89 0,0 z"
         inkscape:connector-curvature="0" />
    </clipPath>
    <clipPath
       id="clipPath4681"
       clipPathUnits="userSpaceOnUse">
      <path
         id="path4683"
         d="m 0,0 595.276,0 0,841.89 L 0,841.89 0,0 z"
         inkscape:connector-curvature="0" />
    </clipPath>
    <clipPath
       id="clipPath4661"
       clipPathUnits="userSpaceOnUse">
      <path
         id="path4663"
         d="m 0,0 595.276,0 0,841.89 L 0,841.89 0,0 z"
         inkscape:connector-curvature="0" />
    </clipPath>
    <clipPath
       id="clipPath4625"
       clipPathUnits="userSpaceOnUse">
      <path
         id="path4627"
         d="m 0,0 595.276,0 0,841.89 L 0,841.89 0,0 z"
         inkscape:connector-curvature="0" />
    </clipPath>
    <clipPath
       id="clipPath4605"
       clipPathUnits="userSpaceOnUse">
      <path
         id="path4607"
         d="m 0,0 595.276,0 0,841.89 L 0,841.89 0,0 z"
         inkscape:connector-curvature="0" />
    </clipPath>
    <clipPath
       id="clipPath4575"
       clipPathUnits="userSpaceOnUse">
      <path
         id="path4577"
         d="m 0,0 595.276,0 0,841.89 L 0,841.89 0,0 z"
         inkscape:connector-curvature="0" />
    </clipPath>
    <clipPath
       id="clipPath4555"
       clipPathUnits="userSpaceOnUse">
      <path
         id="path4557"
         d="m 0,0 595.276,0 0,841.89 L 0,841.89 0,0 z"
         inkscape:connector-curvature="0" />
    </clipPath>
    <clipPath
       id="clipPath4519"
       clipPathUnits="userSpaceOnUse">
      <path
         id="path4521"
         d="m 0,0 595.276,0 0,841.89 L 0,841.89 0,0 z"
         inkscape:connector-curvature="0" />
    </clipPath>
    <clipPath
       id="clipPath4499"
       clipPathUnits="userSpaceOnUse">
      <path
         id="path4501"
         d="m 0,0 595.276,0 0,841.89 L 0,841.89 0,0 z"
         inkscape:connector-curvature="0" />
    </clipPath>
    <clipPath
       id="clipPath4483"
       clipPathUnits="userSpaceOnUse">
      <path
         id="path4485"
         d="m 0,0 595.276,0 0,841.89 L 0,841.89 0,0 z"
         inkscape:connector-curvature="0" />
    </clipPath>
    <clipPath
       id="clipPath4451"
       clipPathUnits="userSpaceOnUse">
      <path
         id="path4453"
         d="m 0,0 595.276,0 0,841.89 L 0,841.89 0,0 z"
         inkscape:connector-curvature="0" />
    </clipPath>
    <clipPath
       id="clipPath4431"
       clipPathUnits="userSpaceOnUse">
      <path
         id="path4433"
         d="m 0,0 595.276,0 0,841.89 L 0,841.89 0,0 z"
         inkscape:connector-curvature="0" />
    </clipPath>
    <clipPath
       id="clipPath4403"
       clipPathUnits="userSpaceOnUse">
      <path
         id="path4405"
         d="m 0,0 595.276,0 0,841.89 L 0,841.89 0,0 z"
         inkscape:connector-curvature="0" />
    </clipPath>
    <linearGradient
       id="linearGradient4389"
       spreadMethod="pad"
       gradientTransform="matrix(0.0839861,4.6391897,4.6391897,-0.0839861,200.24835,788.18811)"
       gradientUnits="userSpaceOnUse"
       y2="0"
       x2="1"
       y1="0"
       x1="0">
      <stop
         id="stop4391"
         offset="0"
         style="stop-opacity:1;stop-color:#ffffff" />
      <stop
         id="stop4393"
         offset="0.723077"
         style="stop-opacity:1;stop-color:#1f3765" />
      <stop
         id="stop4395"
         offset="1"
         style="stop-opacity:1;stop-color:#1f3765" />
    </linearGradient>
    <clipPath
       id="clipPath4369"
       clipPathUnits="userSpaceOnUse">
      <path
         id="path4371"
         d="m 0,0 595.276,0 0,841.89 L 0,841.89 0,0 z"
         inkscape:connector-curvature="0" />
    </clipPath>
    <clipPath
       id="clipPath4307"
       clipPathUnits="userSpaceOnUse">
      <path
         id="path4309"
         d="m 0,0 595.276,0 0,841.89 L 0,841.89 0,0 z"
         inkscape:connector-curvature="0" />
    </clipPath>
    <clipPath
       id="clipPath4255"
       clipPathUnits="userSpaceOnUse">
      <path
         id="path4257"
         d="m 0,0 595.276,0 0,841.89 L 0,841.89 0,0 z"
         inkscape:connector-curvature="0" />
    </clipPath>
    <clipPath
       id="clipPath4243"
       clipPathUnits="userSpaceOnUse">
      <path
         id="path4245"
         d="m 0,0 595.276,0 0,841.89 L 0,841.89 0,0 z"
         inkscape:connector-curvature="0" />
    </clipPath>
    <clipPath
       id="clipPath4197"
       clipPathUnits="userSpaceOnUse">
      <path
         id="path4199"
         d="m 0,0 595.276,0 0,841.89 L 0,841.89 0,0 z"
         inkscape:connector-curvature="0" />
    </clipPath>
    <clipPath
       id="clipPath4169"
       clipPathUnits="userSpaceOnUse">
      <path
         id="path4171"
         d="m 0,0 595.276,0 0,841.89 L 0,841.89 0,0 z"
         inkscape:connector-curvature="0" />
    </clipPath>
    <clipPath
       id="clipPath4133"
       clipPathUnits="userSpaceOnUse">
      <path
         id="path4135"
         d="m 0,0 595.276,0 0,841.89 L 0,841.89 0,0 z"
         inkscape:connector-curvature="0" />
    </clipPath>
    <clipPath
       id="clipPath4109"
       clipPathUnits="userSpaceOnUse">
      <path
         id="path4111"
         d="m 0,0 595.276,0 0,841.89 L 0,841.89 0,0 z"
         inkscape:connector-curvature="0" />
    </clipPath>
    <clipPath
       id="clipPath4091"
       clipPathUnits="userSpaceOnUse">
      <path
         id="path4093"
         d="m 0,0 595.276,0 0,841.89 L 0,841.89 0,0 z"
         inkscape:connector-curvature="0" />
    </clipPath>
    <clipPath
       id="clipPath3963"
       clipPathUnits="userSpaceOnUse">
      <path
         id="path3965"
         d="m 0,0 595.276,0 0,841.89 L 0,841.89 0,0 z"
         inkscape:connector-curvature="0" />
    </clipPath>
    <clipPath
       id="clipPath3943"
       clipPathUnits="userSpaceOnUse">
      <path
         id="path3945"
         d="m 0,0 595.276,0 0,841.89 L 0,841.89 0,0 z"
         inkscape:connector-curvature="0" />
    </clipPath>
    <clipPath
       id="clipPath3927"
       clipPathUnits="userSpaceOnUse">
      <path
         id="path3929"
         d="m 0,0 595.276,0 0,841.89 L 0,841.89 0,0 z"
         inkscape:connector-curvature="0" />
    </clipPath>
    <clipPath
       id="clipPath3873"
       clipPathUnits="userSpaceOnUse">
      <path
         id="path3875"
         d="m 0,0 595.276,0 0,841.89 L 0,841.89 0,0 z"
         inkscape:connector-curvature="0" />
    </clipPath>
    <clipPath
       id="clipPath3853"
       clipPathUnits="userSpaceOnUse">
      <path
         id="path3855"
         d="m 0,0 595.276,0 0,841.89 L 0,841.89 0,0 z"
         inkscape:connector-curvature="0" />
    </clipPath>
    <clipPath
       id="clipPath3833"
       clipPathUnits="userSpaceOnUse">
      <path
         id="path3835"
         d="m 0,0 595.276,0 0,841.89 L 0,841.89 0,0 z"
         inkscape:connector-curvature="0" />
    </clipPath>
    <clipPath
       id="clipPath3797"
       clipPathUnits="userSpaceOnUse">
      <path
         id="path3799"
         d="m 0,0 595.276,0 0,841.89 L 0,841.89 0,0 z"
         inkscape:connector-curvature="0" />
    </clipPath>
    <clipPath
       id="clipPath3781"
       clipPathUnits="userSpaceOnUse">
      <path
         id="path3783"
         d="m 0,0 595.276,0 0,841.89 L 0,841.89 0,0 z"
         inkscape:connector-curvature="0" />
    </clipPath>
    <clipPath
       id="clipPath3769"
       clipPathUnits="userSpaceOnUse">
      <path
         id="path3771"
         d="m 202.732,794.521 c 4.461,-0.645 2.075,-3.955 -0.63,-6.49 l 0,0 c 2.248,-0.029 4.495,-0.065 6.742,-0.094 l 0,0 c 0.075,0.103 0.14,0.206 0.201,0.316 l 0,0 c 1.822,4.067 -0.472,5.922 -3.511,6.203 l 0,0 c -0.653,0.065 -1.268,0.083 -1.856,0.083 l 0,0 c -0.326,0 -0.643,0 -0.946,-0.018"
         inkscape:connector-curvature="0" />
    </clipPath>
    <clipPath
       id="clipPath3757"
       clipPathUnits="userSpaceOnUse">
      <path
         id="path3759"
         d="m 197.515,794.857 c -10.218,-1.352 -20.099,-5.015 -29.841,-9.611 l 0,0 0,-0.002 13.429,0 c 3.479,2.805 8.052,5.668 14.673,8.102 l 0,0 c 1.622,0.595 4.522,1.389 8.638,1.128 l 0,0 c 3.096,-0.187 6.425,-2.228 3.46,-5.223 l 0,0 c 3.832,3.87 -0.662,5.82 -6.722,5.82 l 0,0 c -1.171,0 -2.397,-0.076 -3.637,-0.214"
         inkscape:connector-curvature="0" />
    </clipPath>
    <clipPath
       id="clipPath3501"
       clipPathUnits="userSpaceOnUse">
      <path
         id="path3503"
         d="m 0,0 595.276,0 0,841.89 L 0,841.89 0,0 z"
         inkscape:connector-curvature="0" />
    </clipPath>
    <clipPath
       id="clipPath3449"
       clipPathUnits="userSpaceOnUse">
      <path
         id="path3451"
         d="m 0,0 595.276,0 0,841.89 L 0,841.89 0,0 z"
         inkscape:connector-curvature="0" />
    </clipPath>
    <clipPath
       id="clipPath3389"
       clipPathUnits="userSpaceOnUse">
      <path
         id="path3391"
         d="m 0,0 595.276,0 0,841.89 L 0,841.89 0,0 z"
         inkscape:connector-curvature="0" />
    </clipPath>
    <clipPath
       id="clipPath3365"
       clipPathUnits="userSpaceOnUse">
      <path
         id="path3367"
         d="m 0,0 595.276,0 0,841.89 L 0,841.89 0,0 z"
         inkscape:connector-curvature="0" />
    </clipPath>
    <clipPath
       id="clipPath3345"
       clipPathUnits="userSpaceOnUse">
      <path
         id="path3347"
         d="m 0,0 595.276,0 0,841.89 L 0,841.89 0,0 z"
         inkscape:connector-curvature="0" />
    </clipPath>
    <clipPath
       id="clipPath3325"
       clipPathUnits="userSpaceOnUse">
      <path
         id="path3327"
         d="m 0,0 595.276,0 0,841.89 L 0,841.89 0,0 z"
         inkscape:connector-curvature="0" />
    </clipPath>
    <clipPath
       id="clipPath3305"
       clipPathUnits="userSpaceOnUse">
      <path
         id="path3307"
         d="m 0,0 595.276,0 0,841.89 L 0,841.89 0,0 z"
         inkscape:connector-curvature="0" />
    </clipPath>
    <clipPath
       id="clipPath3289"
       clipPathUnits="userSpaceOnUse">
      <path
         id="path3291"
         d="m 0,0 595.276,0 0,841.89 L 0,841.89 0,0 z"
         inkscape:connector-curvature="0" />
    </clipPath>
    <clipPath
       id="clipPath3273"
       clipPathUnits="userSpaceOnUse">
      <path
         id="path3275"
         d="m 0,0 595.276,0 0,841.89 L 0,841.89 0,0 z"
         inkscape:connector-curvature="0" />
    </clipPath>
    <clipPath
       id="clipPath3259"
       clipPathUnits="userSpaceOnUse">
      <path
         id="path3261"
         d="m 0,0 595.276,0 0,841.89 L 0,841.89 0,0 z"
         inkscape:connector-curvature="0" />
    </clipPath>
    <clipPath
       id="clipPath3239"
       clipPathUnits="userSpaceOnUse">
      <path
         id="path3241"
         d="m 0,0 595.276,0 0,841.89 L 0,841.89 0,0 z"
         inkscape:connector-curvature="0" />
    </clipPath>
    <clipPath
       id="clipPath3215"
       clipPathUnits="userSpaceOnUse">
      <path
         id="path3217"
         d="m 0,0 595.276,0 0,841.89 L 0,841.89 0,0 z"
         inkscape:connector-curvature="0" />
    </clipPath>
    <clipPath
       id="clipPath3201"
       clipPathUnits="userSpaceOnUse">
      <path
         id="path3203"
         d="m 0,0 595.276,0 0,841.89 L 0,841.89 0,0 z"
         inkscape:connector-curvature="0" />
    </clipPath>
    <clipPath
       id="clipPath3181"
       clipPathUnits="userSpaceOnUse">
      <path
         id="path3183"
         d="m 0,0 595.276,0 0,841.89 L 0,841.89 0,0 z"
         inkscape:connector-curvature="0" />
    </clipPath>
    <clipPath
       id="clipPath3117"
       clipPathUnits="userSpaceOnUse">
      <path
         id="path3119"
         d="m 0,0 595.276,0 0,841.89 L 0,841.89 0,0 z"
         inkscape:connector-curvature="0" />
    </clipPath>
    <clipPath
       id="clipPath3091"
       clipPathUnits="userSpaceOnUse">
      <path
         id="path3093"
         d="m 0,0 595.276,0 0,841.89 L 0,841.89 0,0 z"
         inkscape:connector-curvature="0" />
    </clipPath>
    <clipPath
       id="clipPath3071"
       clipPathUnits="userSpaceOnUse">
      <path
         id="path3073"
         d="m 0,0 595.276,0 0,841.89 L 0,841.89 0,0 z"
         inkscape:connector-curvature="0" />
    </clipPath>
    <clipPath
       id="clipPath3051"
       clipPathUnits="userSpaceOnUse">
      <path
         id="path3053"
         d="m 0,0 595.276,0 0,841.89 L 0,841.89 0,0 z"
         inkscape:connector-curvature="0" />
    </clipPath>
    <clipPath
       id="clipPath3035"
       clipPathUnits="userSpaceOnUse">
      <path
         id="path3037"
         d="m 0,0 595.276,0 0,841.89 L 0,841.89 0,0 z"
         inkscape:connector-curvature="0" />
    </clipPath>
    <clipPath
       id="clipPath3019"
       clipPathUnits="userSpaceOnUse">
      <path
         id="path3021"
         d="m 0,0 595.276,0 0,841.89 L 0,841.89 0,0 z"
         inkscape:connector-curvature="0" />
    </clipPath>
    <clipPath
       id="clipPath2999"
       clipPathUnits="userSpaceOnUse">
      <path
         id="path3001"
         d="m 0,0 595.276,0 0,841.89 L 0,841.89 0,0 z"
         inkscape:connector-curvature="0" />
    </clipPath>
    <filter
       inkscape:label="Invert"
       x="0"
       y="0"
       width="1"
       height="1"
       inkscape:menu="Color"
       inkscape:menu-tooltip="Invert colors"
       color-interpolation-filters="sRGB"
       id="filter6966">
      <feColorMatrix
         type="saturate"
         values="1"
         result="fbSourceGraphic"
         id="feColorMatrix6968" />
      <feColorMatrix
         in="fbSourceGraphic"
         values="-1 0 0 0 1 0 -1 0 0 1 0 0 -1 0 1 0 0 0 1 0 "
         id="feColorMatrix6970" />
    </filter>
    <filter
       inkscape:label="Invert"
       x="0"
       y="0"
       width="1"
       height="1"
       inkscape:menu="Color"
       inkscape:menu-tooltip="Invert colors"
       color-interpolation-filters="sRGB"
       id="filter6972">
      <feColorMatrix
         type="saturate"
         values="1"
         result="fbSourceGraphic"
         id="feColorMatrix6974" />
      <feColorMatrix
         in="fbSourceGraphic"
         values="-1 0 0 0 1 0 -1 0 0 1 0 0 -1 0 1 0 0 0 1 0 "
         id="feColorMatrix6976" />
    </filter>
    <filter
       inkscape:label="Invert"
       x="0"
       y="0"
       width="1"
       height="1"
       inkscape:menu="Color"
       inkscape:menu-tooltip="Invert colors"
       color-interpolation-filters="sRGB"
       id="filter6978">
      <feColorMatrix
         type="saturate"
         values="1"
         result="fbSourceGraphic"
         id="feColorMatrix6980" />
      <feColorMatrix
         in="fbSourceGraphic"
         values="-1 0 0 0 1 0 -1 0 0 1 0 0 -1 0 1 0 0 0 1 0 "
         id="feColorMatrix6982" />
    </filter>
    <filter
       inkscape:label="Invert"
       x="0"
       y="0"
       width="1"
       height="1"
       inkscape:menu="Color"
       inkscape:menu-tooltip="Invert colors"
       color-interpolation-filters="sRGB"
       id="filter6984">
      <feColorMatrix
         type="saturate"
         values="1"
         result="fbSourceGraphic"
         id="feColorMatrix6986" />
      <feColorMatrix
         in="fbSourceGraphic"
         values="-1 0 0 0 1 0 -1 0 0 1 0 0 -1 0 1 0 0 0 1 0 "
         id="feColorMatrix6988" />
    </filter>
    <filter
       inkscape:label="Invert"
       x="0"
       y="0"
       width="1"
       height="1"
       inkscape:menu="Color"
       inkscape:menu-tooltip="Invert colors"
       color-interpolation-filters="sRGB"
       id="filter6990">
      <feColorMatrix
         type="saturate"
         values="1"
         result="fbSourceGraphic"
         id="feColorMatrix6992" />
      <feColorMatrix
         in="fbSourceGraphic"
         values="-1 0 0 0 1 0 -1 0 0 1 0 0 -1 0 1 0 0 0 1 0 "
         id="feColorMatrix6994" />
    </filter>
    <filter
       inkscape:label="Invert"
       x="0"
       y="0"
       width="1"
       height="1"
       inkscape:menu="Color"
       inkscape:menu-tooltip="Invert colors"
       color-interpolation-filters="sRGB"
       id="filter6996">
      <feColorMatrix
         type="saturate"
         values="1"
         result="fbSourceGraphic"
         id="feColorMatrix6998" />
      <feColorMatrix
         in="fbSourceGraphic"
         values="-1 0 0 0 1 0 -1 0 0 1 0 0 -1 0 1 0 0 0 1 0 "
         id="feColorMatrix7000" />
    </filter>
    <filter
       inkscape:label="Invert"
       x="0"
       y="0"
       width="1"
       height="1"
       inkscape:menu="Color"
       inkscape:menu-tooltip="Invert colors"
       color-interpolation-filters="sRGB"
       id="filter7002">
      <feColorMatrix
         type="saturate"
         values="1"
         result="fbSourceGraphic"
         id="feColorMatrix7004" />
      <feColorMatrix
         in="fbSourceGraphic"
         values="-1 0 0 0 1 0 -1 0 0 1 0 0 -1 0 1 0 0 0 1 0 "
         id="feColorMatrix7006" />
    </filter>
    <filter
       inkscape:label="Invert"
       x="0"
       y="0"
       width="1"
       height="1"
       inkscape:menu="Color"
       inkscape:menu-tooltip="Invert colors"
       color-interpolation-filters="sRGB"
       id="filter7008">
      <feColorMatrix
         type="saturate"
         values="1"
         result="fbSourceGraphic"
         id="feColorMatrix7010" />
      <feColorMatrix
         in="fbSourceGraphic"
         values="-1 0 0 0 1 0 -1 0 0 1 0 0 -1 0 1 0 0 0 1 0 "
         id="feColorMatrix7012" />
    </filter>
    <filter
       inkscape:label="Invert"
       x="0"
       y="0"
       width="1"
       height="1"
       inkscape:menu="Color"
       inkscape:menu-tooltip="Invert colors"
       color-interpolation-filters="sRGB"
       id="filter7014">
      <feColorMatrix
         type="saturate"
         values="1"
         result="fbSourceGraphic"
         id="feColorMatrix7016" />
      <feColorMatrix
         in="fbSourceGraphic"
         values="-1 0 0 0 1 0 -1 0 0 1 0 0 -1 0 1 0 0 0 1 0 "
         id="feColorMatrix7018" />
    </filter>
    <filter
       inkscape:label="Invert"
       x="0"
       y="0"
       width="1"
       height="1"
       inkscape:menu="Color"
       inkscape:menu-tooltip="Invert colors"
       color-interpolation-filters="sRGB"
       id="filter7671">
      <feColorMatrix
         type="saturate"
         values="1"
         result="fbSourceGraphic"
         id="feColorMatrix7673" />
      <feColorMatrix
         in="fbSourceGraphic"
         values="-1 0 0 0 1 0 -1 0 0 1 0 0 -1 0 1 0 0 0 1 0 "
         id="feColorMatrix7675" />
    </filter>
    <filter
       inkscape:label="Invert"
       x="0"
       y="0"
       width="1"
       height="1"
       inkscape:menu="Color"
       inkscape:menu-tooltip="Invert colors"
       color-interpolation-filters="sRGB"
       id="filter7706">
      <feColorMatrix
         type="saturate"
         values="1"
         result="fbSourceGraphic"
         id="feColorMatrix7708" />
      <feColorMatrix
         in="fbSourceGraphic"
         values="-1 0 0 0 1 0 -1 0 0 1 0 0 -1 0 1 0 0 0 1 0 "
         id="feColorMatrix7710" />
    </filter>
    <filter
       inkscape:label="Invert"
       x="0"
       y="0"
       width="1"
       height="1"
       inkscape:menu="Color"
       inkscape:menu-tooltip="Invert colors"
       color-interpolation-filters="sRGB"
       id="filter7741">
      <feColorMatrix
         type="saturate"
         values="1"
         result="fbSourceGraphic"
         id="feColorMatrix7743" />
      <feColorMatrix
         in="fbSourceGraphic"
         values="-1 0 0 0 1 0 -1 0 0 1 0 0 -1 0 1 0 0 0 1 0 "
         id="feColorMatrix7745" />
    </filter>
    <filter
       inkscape:label="Invert"
       x="0"
       y="0"
       width="1"
       height="1"
       inkscape:menu="Color"
       inkscape:menu-tooltip="Invert colors"
       color-interpolation-filters="sRGB"
       id="filter7776">
      <feColorMatrix
         type="saturate"
         values="1"
         result="fbSourceGraphic"
         id="feColorMatrix7778" />
      <feColorMatrix
         in="fbSourceGraphic"
         values="-1 0 0 0 1 0 -1 0 0 1 0 0 -1 0 1 0 0 0 1 0 "
         id="feColorMatrix7780" />
    </filter>
    <filter
       inkscape:label="Invert"
       x="0"
       y="0"
       width="1"
       height="1"
       inkscape:menu="Color"
       inkscape:menu-tooltip="Invert colors"
       color-interpolation-filters="sRGB"
       id="filter7782">
      <feColorMatrix
         type="saturate"
         values="1"
         result="fbSourceGraphic"
         id="feColorMatrix7784" />
      <feColorMatrix
         in="fbSourceGraphic"
         values="-1 0 0 0 1 0 -1 0 0 1 0 0 -1 0 1 0 0 0 1 0 "
         id="feColorMatrix7786" />
    </filter>
  </defs>
  <sodipodi:namedview
     id="base"
     pagecolor="#ffffff"
     bordercolor="#666666"
     borderopacity="1.0"
     inkscape:pageopacity="0.0"
     inkscape:pageshadow="2"
     inkscape:zoom="0.56704371"
     inkscape:cx="404.87605"
     inkscape:cy="128.63927"
     inkscape:document-units="px"
     inkscape:current-layer="g5317"
     showgrid="false"
     inkscape:window-width="1280"
     inkscape:window-height="975"
     inkscape:window-x="-4"
     inkscape:window-y="-4"
     inkscape:window-maximized="1"
     showguides="true"
     inkscape:guide-bbox="true"
     fit-margin-top="0"
     fit-margin-left="0"
     fit-margin-right="0"
     fit-margin-bottom="0" />
  <metadata
     id="metadata7">
    <rdf:RDF>
      <cc:Work
         rdf:about="">
        <dc:format>image/svg+xml</dc:format>
        <dc:type
           rdf:resource="http://purl.org/dc/dcmitype/StillImage" />
        <dc:title></dc:title>
      </cc:Work>
    </rdf:RDF>
  </metadata>
  <g
     inkscape:label="Layer 1"
     inkscape:groupmode="layer"
     id="layer1"
     transform="translate(-96.821963,-240.93803)">
    <g
       transform="matrix(1.9855198,0,0,-1.9855198,146.41032,378.5286)"
       id="g6067">
      <path
         id="path6069"
         style="fill:#000000;fill-opacity:1;fill-rule:nonzero;stroke:none"
         d="m 0,0 c 0,-3.118 -2.551,-5.669 -5.669,-5.669 l -13.637,0 c -3.118,0 -5.669,2.551 -5.669,5.669 l 0,63.628 c 0,3.118 2.551,5.669 5.669,5.669 l 13.637,0 C -2.551,69.297 0,66.746 0,63.628 L 0,0 z"
         inkscape:connector-curvature="0" />
    </g>
    <g
       style="font-size:63.64658356px;font-style:normal;font-variant:normal;font-weight:normal;font-stretch:normal;line-height:125%;letter-spacing:0px;word-spacing:0px;fill:#f29c1b;fill-opacity:1;stroke:none;font-family:Georgia;-inkscape-font-specification:Georgia"
       id="text6071">
      <path
         d="m 163.08476,389.7328 c 1.69852,0.0186 3.409,-0.16177 5.13144,-0.54099 1.72239,-0.37923 3.38513,-1.06872 4.98823,-2.06849 2.2541,-1.53943 3.82402,-3.29764 4.70979,-5.27464 0.8857,-1.97699 1.31001,-3.91023 1.27292,-5.79972 0.0464,-2.95952 -0.73064,-5.69628 -2.33103,-8.21031 -1.60046,-2.51398 -4.30275,-5.1871 -8.10688,-8.01936 l -1.78208,-1.33656 c -2.59226,-1.9531 -4.37699,-3.61585 -5.3542,-4.98824 -0.97724,-1.37233 -1.44133,-2.76458 -1.39225,-4.17675 0.0212,-1.94381 0.69478,-3.51374 2.02075,-4.70979 1.32594,-1.19597 3.17697,-1.81121 5.55309,-1.84573 2.0393,0.0544 3.59331,0.42303 4.66205,1.10585 1.0687,0.68291 1.82714,1.35384 2.27534,2.01279 0.65367,0.86324 1.09654,1.69859 1.32861,2.50606 0.23201,0.80754 0.34074,1.3724 0.32618,1.69456 -0.0106,0.76379 0.20152,1.14567 0.63646,1.14563 0.2519,0.008 0.43223,-0.13521 0.54099,-0.42961 0.10869,-0.29432 0.16173,-0.78758 0.15911,-1.47976 0.0106,-2.43839 0.053,-4.22843 0.12729,-5.37012 0.0742,-1.1416 0.11666,-1.89739 0.1273,-2.26738 -0.001,-0.21873 -0.0783,-0.3858 -0.23072,-0.50121 -0.15252,-0.11531 -0.37262,-0.20282 -0.66032,-0.26254 -0.81815,-0.23995 -1.91869,-0.47597 -3.30163,-0.70806 -1.38299,-0.23199 -3.10408,-0.35663 -5.16326,-0.37391 -4.48307,0.0637 -8.03927,1.1934 -10.66862,3.38913 -2.62938,2.19583 -3.97389,5.07579 -4.03355,8.63992 -0.0451,2.54188 0.64971,5.01611 2.0844,7.42268 1.43467,2.40664 3.87972,4.96042 7.33517,7.66136 l 2.92771,2.29125 c 2.571,2.03933 4.27087,3.86384 5.09961,5.47354 0.8287,1.60972 1.20792,3.17964 1.13767,4.70978 0.003,1.77811 -0.70278,3.40903 -2.11622,4.89277 -1.41349,1.48374 -3.55093,2.27136 -6.41231,2.36285 -2.01812,0.0265 -3.85324,-0.45613 -5.50536,-1.44794 -1.65215,-0.99181 -2.85081,-2.6519 -3.59599,-4.98028 -0.1631,-0.55689 -0.29835,-1.12971 -0.40574,-1.71844 -0.10741,-0.58871 -0.1631,-1.09788 -0.16707,-1.5275 0.009,-0.26783 -0.0252,-0.5118 -0.10342,-0.73192 -0.0782,-0.2201 -0.25592,-0.33678 -0.53304,-0.35005 -0.25061,0.009 -0.43359,0.16575 -0.54894,0.46938 -0.11537,0.30366 -0.18697,0.69879 -0.21481,1.1854 -0.0411,0.57415 -0.1021,1.65348 -0.18298,3.23798 -0.0809,1.58452 -0.12597,3.28439 -0.13524,5.09962 -0.0133,0.67491 0.061,1.15491 0.22276,1.43998 0.16176,0.28508 0.49059,0.52641 0.98651,0.72398 1.35379,0.598 2.78316,1.02496 4.28813,1.28087 1.50494,0.2559 3.17299,0.38054 5.00415,0.37392 z"
         style="font-weight:bold;fill:#f29c1b;font-family:Trajan Pro;-inkscape-font-specification:Trajan Pro Bold"
         id="path3441"
         inkscape:connector-curvature="0" />
      <path
         d="m 217.12248,389.7328 c 2.10027,0.003 4.20058,-0.11404 6.30093,-0.35006 2.10027,-0.23602 3.8187,-0.60728 5.1553,-1.1138 0.52238,-0.20419 0.89365,-0.43226 1.1138,-0.68419 0.22007,-0.25193 0.4004,-0.63911 0.54099,-1.16153 0.33675,-1.2517 0.64967,-2.83754 0.93878,-4.75753 0.28901,-1.91997 0.44282,-3.15576 0.46143,-3.70736 0.004,-0.26253 -0.0359,-0.48529 -0.11933,-0.66828 -0.0836,-0.18297 -0.23475,-0.27844 -0.45348,-0.28641 -0.24535,-0.0106 -0.42303,0.0743 -0.53304,0.25459 -0.1101,0.18034 -0.20822,0.51978 -0.29436,1.01833 -0.13396,0.60067 -0.3912,1.29281 -0.7717,2.07644 -0.3806,0.78365 -0.84468,1.49171 -1.39225,2.12418 -1.24512,1.42938 -2.79648,2.38937 -4.6541,2.87997 -1.8577,0.4906 -4.18872,0.71867 -6.99308,0.68419 -2.93245,7.9e-4 -5.92851,-0.83525 -8.98819,-2.50811 -3.05973,-1.67286 -5.64564,-4.18726 -7.75771,-7.54321 -2.11212,-3.35592 -3.21295,-7.55811 -3.30251,-12.60657 -0.0464,-3.12127 0.34871,-6.10731 1.1854,-8.95814 0.83666,-2.85076 2.39333,-5.35947 4.67001,-7.52611 1.37764,-1.27818 3.02978,-2.25408 4.95641,-2.92771 1.92659,-0.67354 4.26291,-1.01298 7.00899,-1.01833 2.96878,0.0252 5.59151,0.40446 7.86821,1.13767 2.27662,0.73329 3.96058,1.66942 5.05188,2.80837 0.79553,0.84467 1.40016,1.78079 1.8139,2.80837 0.41366,1.02765 0.63642,2.04333 0.66829,3.04704 -0.005,0.4482 0.0371,0.79295 0.12729,1.03424 0.0901,0.24136 0.25984,0.36335 0.50916,0.36596 0.27841,-10e-4 0.46934,-0.12593 0.57282,-0.37391 0.10337,-0.24792 0.16702,-0.61123 0.19093,-1.08994 0.0556,-0.712 0.0875,-1.7542 0.0955,-3.1266 0.008,-1.37232 0.0397,-2.62137 0.0955,-3.74714 0.0689,-1.08857 0.13785,-1.88679 0.20685,-2.39467 0.0689,-0.5078 0.10603,-0.87641 0.11138,-1.10585 0.004,-0.19487 -0.0677,-0.36194 -0.21481,-0.50121 -0.14722,-0.13918 -0.39385,-0.22669 -0.73988,-0.26254 -0.94943,-0.10868 -1.94654,-0.2731 -2.99135,-0.49325 -1.04489,-0.22006 -2.1693,-0.4163 -3.37322,-0.58873 -1.41881,-0.19354 -2.82963,-0.34735 -4.23245,-0.46143 -1.40289,-0.11398 -3.06829,-0.17232 -4.99619,-0.17502 -4.70053,0.0186 -8.66513,0.61794 -11.8938,1.79799 -3.22872,1.18014 -5.96813,2.82963 -8.21826,4.94846 -2.9834,2.90653 -4.98824,5.97213 -6.01453,9.19681 -1.02629,3.22475 -1.50363,5.97212 -1.43203,8.24213 -0.061,3.1412 0.47469,6.35796 1.60706,9.65029 1.13236,3.29235 3.22736,6.33409 6.28502,9.12521 2.89852,2.48882 6.17097,4.27355 9.81736,5.3542 3.64635,1.08065 7.65072,1.60838 12.01314,1.58319 z"
         style="font-weight:bold;fill:#f29c1b;font-family:Trajan Pro;-inkscape-font-specification:Trajan Pro Bold"
         id="path3443"
         inkscape:connector-curvature="0" />
      <path
         d="m 245.30428,370.38448 c 0.007,2.95955 -0.007,5.61676 -0.0398,7.97164 -0.0332,2.3549 -0.12598,4.21653 -0.27845,5.58491 -0.10874,0.93745 -0.28907,1.71976 -0.54099,2.34694 -0.25195,0.62718 -0.68686,1.0117 -1.30474,1.15358 -0.28642,0.0663 -0.62056,0.12464 -1.00242,0.17502 -0.38188,0.0504 -0.81149,0.0769 -1.28883,0.0796 -0.37658,0.001 -0.64177,0.0464 -0.79557,0.13525 -0.15382,0.0888 -0.22807,0.21348 -0.22276,0.37392 0.0106,0.43491 0.43491,0.64706 1.27291,0.63646 1.36176,-0.008 2.82297,-0.0398 4.38363,-0.0955 1.56064,-0.0557 2.68771,-0.0875 3.38119,-0.0955 0.57678,0.008 1.79401,0.0398 3.65169,0.0955 1.85765,0.0557 3.75907,0.0875 5.70427,0.0955 0.83792,0.0106 1.26221,-0.20155 1.27285,-0.63646 -3e-5,-0.32884 -0.25461,-0.49856 -0.76375,-0.50917 -0.40444,-0.003 -0.90035,-0.0292 -1.48772,-0.0796 -0.58742,-0.0504 -1.13106,-0.10872 -1.63092,-0.17502 -0.92686,-0.14188 -1.55537,-0.5264 -1.88551,-1.15358 -0.33018,-0.62718 -0.52907,-1.40949 -0.59668,-2.34694 -0.1525,-1.36705 -0.24532,-3.23134 -0.27845,-5.59287 -0.0332,-2.36151 -0.0464,-5.03728 -0.0398,-8.02732 l 0,-0.89104 c 0.001,-0.18827 0.0464,-0.32087 0.13525,-0.39779 0.0888,-0.0769 0.21346,-0.11401 0.37392,-0.11138 l 5.53718,0.12729 c 0.22274,-0.005 0.42959,0.0212 0.62055,0.0796 0.19091,0.0584 0.36594,0.18035 0.52508,0.36596 0.46538,0.56488 1.30073,1.7105 2.50605,3.43687 1.20526,1.72641 2.47022,3.50849 3.79488,5.34625 1.75155,2.44241 3.30822,4.43134 4.67,5.96679 1.36172,1.53546 2.71154,2.66517 4.04947,3.38914 0.78492,0.44021 1.68126,0.75314 2.68903,0.93877 1.00768,0.18563 2.38137,0.2758 4.12106,0.2705 l 6.04635,0 c 0.38447,0.005 0.68149,-0.0371 0.89104,-0.1273 0.20945,-0.0902 0.31552,-0.25988 0.31823,-0.50916 -5e-5,-0.32884 -0.25464,-0.49856 -0.76375,-0.50917 -0.49861,0 -1.09264,-0.0636 -1.78208,-0.19094 -0.49198,-0.0331 -1.35385,-0.3169 -2.58561,-0.85126 -1.23186,-0.53436 -2.7461,-1.69324 -4.54272,-3.47665 -1.86433,-1.97831 -3.92751,-4.37033 -6.18955,-7.17606 -2.26211,-2.8057 -4.80263,-5.99329 -7.62158,-9.56277 3.16237,-2.58294 5.3661,-5.02269 6.61121,-7.31927 1.24503,-2.29652 1.84171,-4.60898 1.79003,-6.93738 -0.069,-2.15332 -0.56754,-3.98843 -1.49567,-5.50536 -0.92821,-1.51685 -1.87229,-2.58822 -2.83224,-3.21411 -1.74101,-1.14426 -3.62121,-1.89475 -5.6406,-2.25147 -2.01946,-0.35664 -4.04286,-0.5184 -6.07022,-0.4853 -1.10186,0.008 -2.57365,0.0397 -4.41538,0.0954 -1.84177,0.0557 -3.36131,0.0875 -4.55863,0.0954 -0.73725,-0.008 -1.93591,-0.0397 -3.596,-0.0955 -1.66011,-0.0556 -3.36794,-0.0875 -5.1235,-0.0955 -0.47603,-0.004 -0.82873,0.036 -1.05812,0.11946 -0.2294,0.0836 -0.34343,0.23476 -0.3421,0.45349 0.001,0.21883 0.0941,0.36999 0.27845,0.45347 0.18431,0.0836 0.45215,0.12337 0.80353,0.11934 0.46143,5e-5 0.92286,0.016 1.3843,0.0477 0.46142,0.0319 0.82738,0.0796 1.09788,0.1432 1.02496,0.21087 1.72771,0.6007 2.10827,1.16949 0.38054,0.56888 0.59004,1.38832 0.6285,2.45832 0.061,0.84865 0.0981,2.14278 0.11138,3.88239 0.0133,1.73969 0.0186,4.94319 0.0159,9.61051 z m 7.5102,-25.52195 c -0.004,-0.25189 0.0358,-0.44813 0.11934,-0.58872 0.0835,-0.14051 0.23468,-0.24128 0.45348,-0.30232 0.64704,-0.18028 1.77145,-0.26514 3.37322,-0.25458 2.04858,-0.0795 4.14093,0.73197 6.27707,2.43445 2.13608,1.70256 3.28965,4.77347 3.46073,9.21272 -0.0372,2.5936 -0.42433,4.66208 -1.16153,6.20546 -0.73726,1.54344 -1.60178,2.65724 -2.59357,3.34141 -0.53041,0.40709 -1.10852,0.69084 -1.73435,0.85126 -0.62587,0.16046 -1.55404,0.23737 -2.7845,0.23072 -0.81415,10e-4 -1.65216,-0.049 -2.514,-0.15116 -0.86189,-0.10208 -1.63625,-0.26384 -2.32307,-0.4853 -0.2188,-0.0875 -0.36996,-0.21478 -0.45348,-0.38188 -0.0836,-0.16704 -0.12333,-0.42163 -0.11934,-0.76375 z"
         style="font-weight:bold;fill:#f29c1b;font-family:Trajan Pro;-inkscape-font-specification:Trajan Pro Bold"
         id="path3445"
         inkscape:connector-curvature="0" />
      <path
         d="m 293.41215,370.38448 c 0.007,3.11203 -0.007,5.86205 -0.0398,8.25008 -0.0332,2.38805 -0.12598,4.26295 -0.27845,5.6247 -0.0809,0.92419 -0.25327,1.65346 -0.51712,2.18782 -0.26388,0.53436 -0.70675,0.86585 -1.32861,0.99447 -0.28641,0.0663 -0.62055,0.12464 -1.00242,0.17502 -0.38188,0.0504 -0.81149,0.0769 -1.28883,0.0796 -0.37657,0.001 -0.64176,0.0464 -0.79557,0.13525 -0.15381,0.0888 -0.22807,0.21348 -0.22276,0.37392 0.0106,0.43491 0.43491,0.64706 1.27292,0.63646 1.35645,-0.008 2.82827,-0.0398 4.41545,-0.0955 1.58716,-0.0557 2.78847,-0.0875 3.60395,-0.0955 0.90296,0.008 2.24748,0.0398 4.03356,0.0955 1.78605,0.0557 3.75111,0.0875 5.89521,0.0955 0.35662,0.001 0.64566,-0.0491 0.86712,-0.15116 0.2214,-0.1021 0.33543,-0.26387 0.34208,-0.4853 0.0106,-0.32884 -0.32886,-0.49856 -1.01833,-0.50917 -0.49726,-0.003 -1.0462,-0.0292 -1.64683,-0.0796 -0.60068,-0.0504 -1.13372,-0.10872 -1.5991,-0.17502 -0.92952,-0.13392 -1.56863,-0.47071 -1.91733,-1.01038 -0.34875,-0.53966 -0.55825,-1.24241 -0.6285,-2.10826 -0.12201,-1.39225 -0.19626,-3.28571 -0.22276,-5.68039 -0.0265,-2.39466 -0.0371,-5.14734 -0.0318,-8.25804 l 0,-11.20165 c -0.003,-4.66732 0.003,-7.87082 0.0159,-9.61051 0.0132,-1.73961 0.0504,-3.03374 0.11138,-3.88239 0.0464,-1.10581 0.23998,-1.94911 0.58077,-2.52992 0.34075,-0.58072 0.93213,-0.94669 1.77413,-1.09789 0.3739,-0.0636 0.70804,-0.11134 1.00242,-0.14321 0.29434,-0.0318 0.59666,-0.0477 0.90695,-0.0477 0.32086,0.005 0.57014,-0.0371 0.74784,-0.12729 0.17765,-0.0901 0.26782,-0.25984 0.27049,-0.50917 -0.004,-0.18824 -0.12333,-0.32083 -0.358,-0.39778 -0.23472,-0.0769 -0.56091,-0.11399 -0.97856,-0.11138 -1.28219,0.008 -2.67973,0.0397 -4.19262,0.0954 -1.51293,0.0557 -2.70363,0.0875 -3.57212,0.0954 -1.00111,-0.008 -2.30851,-0.0397 -3.92218,-0.0955 -1.6137,-0.0556 -3.0643,-0.0875 -4.35179,-0.0955 -0.50919,-0.003 -0.89107,0.0346 -1.14564,0.1115 -0.25459,0.077 -0.38188,0.20957 -0.38188,0.3978 0.003,0.24933 0.0928,0.41905 0.2705,0.50917 0.17767,0.0902 0.42695,0.13264 0.74783,0.12729 0.38585,-10e-4 0.77568,0.0173 1.16949,0.0557 0.3938,0.0385 0.76772,0.1048 1.12176,0.19889 0.69479,0.15253 1.21456,0.51585 1.55932,1.08994 0.34474,0.57418 0.54628,1.39892 0.60464,2.47423 0.061,0.84865 0.0981,2.14278 0.11138,3.88239 0.0133,1.73969 0.0186,4.94319 0.0159,9.61051 z"
         style="font-weight:bold;fill:#f29c1b;font-family:Trajan Pro;-inkscape-font-specification:Trajan Pro Bold"
         id="path3447"
         inkscape:connector-curvature="0" />
      <path
         d="m 322.12769,370.38448 c 0.007,2.95955 -0.007,5.61676 -0.0398,7.97164 -0.0332,2.3549 -0.12598,4.21653 -0.27845,5.58491 -0.10874,0.93745 -0.28907,1.71976 -0.54099,2.34694 -0.25195,0.62718 -0.68686,1.0117 -1.30474,1.15358 -0.28642,0.0663 -0.62056,0.12464 -1.00242,0.17502 -0.38188,0.0504 -0.81149,0.0769 -1.28883,0.0796 -0.37658,0.001 -0.64177,0.0464 -0.79557,0.13525 -0.15382,0.0888 -0.22807,0.21348 -0.22276,0.37392 0.0106,0.43491 0.43491,0.64706 1.27291,0.63646 1.35646,-0.008 2.82827,-0.0398 4.41545,-0.0955 1.58716,-0.0557 2.78848,-0.0875 3.60396,-0.0955 0.87246,0.008 2.19842,0.0398 3.97787,0.0955 1.77942,0.0557 3.74183,0.0875 5.88725,0.0955 0.35662,0.001 0.64566,-0.0491 0.86712,-0.15116 0.2214,-0.1021 0.33543,-0.26387 0.34208,-0.4853 0.0106,-0.32884 -0.32886,-0.49856 -1.01833,-0.50917 -0.49726,-0.003 -1.0462,-0.0292 -1.64683,-0.0796 -0.60068,-0.0504 -1.13372,-0.10872 -1.5991,-0.17502 -0.92687,-0.1432 -1.55537,-0.52508 -1.88551,-1.14563 -0.33018,-0.62054 -0.52907,-1.38429 -0.59668,-2.29124 -0.1525,-1.39888 -0.24532,-3.27908 -0.27845,-5.64061 -0.0332,-2.36151 -0.0464,-5.02137 -0.0398,-7.97959 l 0,-25.4583 c 0.0106,-0.68945 0.18031,-1.09254 0.50917,-1.20927 0.29434,-0.0941 0.6603,-0.1604 1.09789,-0.1989 0.43754,-0.0384 0.89897,-0.057 1.38429,-0.0557 0.7624,-0.0278 1.71974,0.12335 2.87202,0.45347 1.15223,0.33021 2.31641,1.00644 3.49256,2.02871 1.71575,1.65881 2.78712,3.3852 3.21411,5.17917 0.42693,1.79405 0.60726,3.24995 0.54099,4.36769 -0.13263,3.27779 -1.10853,5.83953 -2.9277,7.68523 -1.81924,1.84575 -3.68618,2.78453 -5.60083,2.81633 -0.65902,-0.003 -1.12311,0.0504 -1.39225,0.15911 -0.26919,0.10875 -0.39914,0.28908 -0.38983,0.54099 0.0119,0.21483 0.0994,0.35803 0.26254,0.42961 0.16307,0.0716 0.33014,0.11936 0.50121,0.1432 0.175,0.0305 0.39776,0.0491 0.66828,0.0557 0.27047,0.007 0.49323,0.009 0.66828,0.008 4.60633,-0.0769 8.34552,-1.51422 11.21756,-4.312 2.87198,-2.79774 4.35174,-6.49449 4.43929,-11.09028 -0.0451,-1.70779 -0.40047,-3.22468 -1.06606,-4.55067 -0.66567,-1.32591 -1.37107,-2.33364 -2.11622,-3.02317 -0.44158,-0.56879 -1.54743,-1.29276 -3.31754,-2.17192 -1.77018,-0.87906 -4.61037,-1.36436 -8.52058,-1.45589 -1.5023,0.008 -3.08016,0.0397 -4.73361,0.0954 -1.65348,0.0557 -3.1518,0.0875 -4.49498,0.0954 -0.95073,-0.008 -2.27934,-0.0397 -3.98583,-0.0955 -1.70651,-0.0556 -3.43291,-0.0875 -5.17919,-0.0955 -0.47603,-0.004 -0.82873,0.036 -1.05812,0.11946 -0.2294,0.0836 -0.34343,0.23476 -0.3421,0.45349 0.001,0.21883 0.0941,0.36999 0.27845,0.45347 0.18431,0.0836 0.45215,0.12337 0.80353,0.11934 0.46143,5e-5 0.92286,0.016 1.3843,0.0477 0.46142,0.0319 0.82738,0.0796 1.09788,0.1432 1.02496,0.21087 1.72771,0.6007 2.10827,1.16949 0.38054,0.56888 0.59004,1.38832 0.6285,2.45832 0.061,0.84865 0.0981,2.14278 0.11138,3.88239 0.0132,1.73969 0.0186,4.94319 0.0159,9.61051 z"
         style="font-weight:bold;fill:#f29c1b;font-family:Trajan Pro;-inkscape-font-specification:Trajan Pro Bold"
         id="path3449"
         inkscape:connector-curvature="0" />
      <path
         d="m 372.23635,370.38448 c 0.007,2.95955 -0.007,5.61676 -0.0398,7.97164 -0.0332,2.3549 -0.12598,4.21653 -0.27845,5.58491 -0.0809,0.93745 -0.25328,1.71976 -0.51712,2.34694 -0.26389,0.62718 -0.70675,1.0117 -1.32861,1.15358 -0.28642,0.0663 -0.62056,0.12464 -1.00242,0.17502 -0.38189,0.0504 -0.8115,0.0769 -1.28882,0.0796 -0.37659,0.001 -0.64178,0.0464 -0.79558,0.13525 -0.15382,0.0888 -0.22807,0.21348 -0.22276,0.37392 0.0106,0.43491 0.4349,0.64706 1.27292,0.63646 1.35646,-0.008 2.82828,-0.0398 4.41547,-0.0955 1.58715,-0.0557 2.78847,-0.0875 3.60396,-0.0955 0.93345,0.008 2.29653,0.0398 4.08925,0.0955 1.79266,0.0557 3.76038,0.0875 5.90316,0.0955 0.3566,0.001 0.64564,-0.0491 0.86709,-0.15116 0.22139,-0.1021 0.33542,-0.26387 0.34209,-0.4853 0.0106,-0.32884 -0.32887,-0.49856 -1.01833,-0.50917 -0.49727,-0.003 -1.04621,-0.0292 -1.64684,-0.0796 -0.60069,-0.0504 -1.13372,-0.10872 -1.5991,-0.17502 -0.92687,-0.1432 -1.55537,-0.52508 -1.8855,-1.14563 -0.33019,-0.62054 -0.52908,-1.38429 -0.59668,-2.29124 -0.15251,-1.39888 -0.24533,-3.27908 -0.27845,-5.64061 -0.0332,-2.36151 -0.0464,-5.02137 -0.0398,-7.97959 l 0,-26.09476 8.01937,0.19094 c 2.78313,0.10081 4.72698,0.5039 5.83154,1.20927 1.10447,0.70545 1.66403,1.49041 1.67866,2.35489 l 0.0636,0.7001 c 0.0251,0.47076 0.0861,0.80224 0.18298,0.99447 0.0968,0.1923 0.26913,0.28512 0.51713,0.27845 0.18691,-0.003 0.32216,-0.0928 0.40574,-0.2705 0.0835,-0.17764 0.13918,-0.42691 0.16707,-0.74783 0.008,-0.94802 0.0397,-2.21828 0.0955,-3.81079 0.0557,-1.59243 0.0875,-2.78313 0.0955,-3.57212 0.007,-0.47332 -0.0226,-0.81542 -0.0875,-1.02629 -0.065,-0.21078 -0.20557,-0.3142 -0.42165,-0.31027 -0.12336,0.001 -0.32225,0.0305 -0.59668,0.0875 -0.27452,0.0571 -0.64844,0.13397 -1.12176,0.23072 -0.47341,0.069 -1.07008,0.13794 -1.79004,0.20684 -0.72003,0.069 -1.5872,0.10613 -2.60152,0.11138 l -25.20372,0 c -1.06873,-10e-4 -2.16131,-0.0305 -3.27776,-0.0875 -1.11646,-0.057 -2.14539,-0.13387 -3.08681,-0.23071 -0.77834,-0.0875 -1.36972,-0.23067 -1.77413,-0.42961 -0.40442,-0.19885 -0.7253,-0.31023 -0.96264,-0.33414 -0.18696,-10e-4 -0.33812,0.0968 -0.45348,0.29436 -0.11536,0.19762 -0.21878,0.50258 -0.31027,0.91491 -0.0566,0.23184 -0.19094,0.86437 -0.40309,1.89758 -0.21216,1.03331 -0.41724,2.09486 -0.61524,3.18465 -0.19801,1.08987 -0.30409,1.83555 -0.31823,2.23703 -0.004,0.34876 0.0358,0.606 0.11933,0.7717 0.0835,0.16579 0.2347,0.248 0.45348,0.24663 0.18828,4e-5 0.33679,-0.0636 0.44552,-0.19094 0.10873,-0.12725 0.19359,-0.31818 0.25458,-0.57281 0.061,-0.25587 0.17768,-0.57144 0.35005,-0.94673 0.17238,-0.3752 0.41635,-0.80216 0.73193,-1.28087 0.44419,-0.6815 1.13103,-1.14823 2.06053,-1.40021 0.92949,-0.25188 2.30052,-0.40039 4.11311,-0.44552 l 9.48322,-0.25458 z"
         style="font-weight:bold;fill:#f29c1b;font-family:Trajan Pro;-inkscape-font-specification:Trajan Pro Bold"
         id="path3452"
         inkscape:connector-curvature="0" />
      <path
         d="m 427.73205,389.7328 c 8.17049,-0.17636 14.58279,-2.70362 19.23693,-7.58181 4.65404,-4.87817 7.02485,-11.04915 7.11242,-18.51296 -0.0809,-7.36829 -2.38545,-13.1574 -6.91352,-17.36734 -4.52818,-4.20985 -10.79463,-6.35524 -18.79937,-6.43617 -6.33553,0.10652 -11.43583,1.45643 -15.30091,4.04975 -3.86512,2.59341 -6.66946,5.79141 -8.41303,9.59401 -1.74359,3.80267 -2.60084,7.57113 -2.57176,11.30538 -0.0216,3.85451 0.84193,7.67954 2.59062,11.47509 1.74867,3.79558 4.51215,6.96529 8.29044,9.50915 3.77827,2.54387 8.70099,3.8655 14.76818,3.9649 z m 2.67312,-3.18229 c -6.1604,-0.16177 -10.94444,-2.46362 -14.35212,-6.90557 -3.40771,-4.44193 -5.13675,-10.05336 -5.18713,-16.8343 0.19491,-7.76343 1.88947,-13.06458 5.08371,-15.90349 3.1942,-2.83882 6.71858,-4.17803 10.57315,-4.01764 5.34356,0.0717 9.75633,2.14014 13.23832,6.20546 3.48191,4.06541 5.2852,9.69806 5.40989,16.89796 -0.0998,6.0444 -1.04588,10.54595 -2.83813,13.50468 -1.79234,2.95875 -3.83214,4.89562 -6.11942,5.81063 -2.28736,0.915 -4.22344,1.32909 -5.80827,1.24227 z"
         style="font-weight:bold;fill:#f29c1b;font-family:Trajan Pro;-inkscape-font-specification:Trajan Pro Bold"
         id="path3454"
         inkscape:connector-curvature="0" />
      <path
         d="m 468.06732,370.38448 c 0.007,2.95955 -0.007,5.61676 -0.0398,7.97164 -0.0332,2.3549 -0.12598,4.21653 -0.27845,5.58491 -0.10874,0.93745 -0.28907,1.71976 -0.54099,2.34694 -0.25194,0.62718 -0.68686,1.0117 -1.30474,1.15358 -0.28642,0.0663 -0.62056,0.12464 -1.00242,0.17502 -0.38188,0.0504 -0.81149,0.0769 -1.28883,0.0796 -0.37658,0.001 -0.64177,0.0464 -0.79557,0.13525 -0.15382,0.0888 -0.22807,0.21348 -0.22276,0.37392 0.0106,0.43491 0.43491,0.64706 1.27291,0.63646 1.36176,-0.008 2.82297,-0.0398 4.38363,-0.0955 1.56064,-0.0557 2.68771,-0.0875 3.3812,-0.0955 0.57677,0.008 1.794,0.0398 3.65168,0.0955 1.85765,0.0557 3.75907,0.0875 5.70427,0.0955 0.83792,0.0106 1.26221,-0.20155 1.27285,-0.63646 -2e-5,-0.32884 -0.25461,-0.49856 -0.76375,-0.50917 -0.40444,-0.003 -0.90034,-0.0292 -1.48772,-0.0796 -0.58742,-0.0504 -1.13106,-0.10872 -1.63092,-0.17502 -0.92686,-0.14188 -1.55536,-0.5264 -1.88551,-1.15358 -0.33018,-0.62718 -0.52907,-1.40949 -0.59668,-2.34694 -0.1525,-1.36705 -0.24532,-3.23134 -0.27845,-5.59287 -0.0332,-2.36151 -0.0464,-5.03728 -0.0398,-8.02732 l 0,-0.89104 c 10e-4,-0.18827 0.0464,-0.32087 0.13524,-0.39779 0.0888,-0.0769 0.21346,-0.11401 0.37392,-0.11138 l 5.53718,0.12729 c 0.22274,-0.005 0.42959,0.0212 0.62055,0.0796 0.19091,0.0584 0.36594,0.18035 0.52508,0.36596 0.46538,0.56488 1.30073,1.7105 2.50605,3.43687 1.20526,1.72641 2.47022,3.50849 3.79488,5.34625 1.75155,2.44241 3.30822,4.43134 4.67,5.96679 1.36172,1.53546 2.71154,2.66517 4.04947,3.38914 0.78492,0.44021 1.68126,0.75314 2.68903,0.93877 1.00768,0.18563 2.38137,0.2758 4.12106,0.2705 l 6.04635,0 c 0.38447,0.005 0.68149,-0.0371 0.89104,-0.1273 0.20945,-0.0902 0.31552,-0.25988 0.31823,-0.50916 -5e-5,-0.32884 -0.25464,-0.49856 -0.76375,-0.50917 -0.49861,0 -1.09264,-0.0636 -1.78208,-0.19094 -0.49198,-0.0331 -1.35385,-0.3169 -2.58561,-0.85126 -1.23186,-0.53436 -2.7461,-1.69324 -4.54272,-3.47665 -1.86433,-1.97831 -3.92751,-4.37033 -6.18955,-7.17606 -2.26211,-2.8057 -4.80263,-5.99329 -7.62158,-9.56277 3.16237,-2.58294 5.3661,-5.02269 6.61121,-7.31927 1.24503,-2.29652 1.84171,-4.60898 1.79003,-6.93738 -0.069,-2.15332 -0.56754,-3.98843 -1.49567,-5.50536 -0.92821,-1.51685 -1.87228,-2.58822 -2.83224,-3.21411 -1.74101,-1.14426 -3.62121,-1.89475 -5.6406,-2.25147 -2.01946,-0.35664 -4.04286,-0.5184 -6.07022,-0.4853 -1.10186,0.008 -2.57365,0.0397 -4.41538,0.0954 -1.84176,0.0557 -3.36131,0.0875 -4.55863,0.0954 -0.73725,-0.008 -1.93591,-0.0397 -3.596,-0.0955 -1.66011,-0.0556 -3.36794,-0.0875 -5.1235,-0.0955 -0.47602,-0.004 -0.82873,0.036 -1.05812,0.11946 -0.2294,0.0836 -0.34343,0.23476 -0.3421,0.45349 10e-4,0.21883 0.0941,0.36999 0.27845,0.45347 0.18431,0.0836 0.45215,0.12337 0.80353,0.11934 0.46143,5e-5 0.92286,0.016 1.3843,0.0477 0.46142,0.0319 0.82738,0.0796 1.09789,0.1432 1.02495,0.21087 1.7277,0.6007 2.10826,1.16949 0.38054,0.56888 0.59004,1.38832 0.6285,2.45832 0.061,0.84865 0.0981,2.14278 0.11138,3.88239 0.0132,1.73969 0.0186,4.94319 0.0159,9.61051 z m 7.5102,-25.52195 c -0.004,-0.25189 0.0358,-0.44813 0.11933,-0.58872 0.0835,-0.14051 0.23468,-0.24128 0.45348,-0.30232 0.64704,-0.18028 1.77145,-0.26514 3.37322,-0.25458 2.04858,-0.0795 4.14093,0.73197 6.27707,2.43445 2.13608,1.70256 3.28966,4.77347 3.46073,9.21272 -0.0371,2.5936 -0.42433,4.66208 -1.16153,6.20546 -0.73726,1.54344 -1.60178,2.65724 -2.59357,3.34141 -0.53041,0.40709 -1.10852,0.69084 -1.73434,0.85126 -0.62588,0.16046 -1.55405,0.23737 -2.7845,0.23072 -0.81416,10e-4 -1.65217,-0.049 -2.51401,-0.15116 -0.86189,-0.10208 -1.63625,-0.26384 -2.32307,-0.4853 -0.2188,-0.0875 -0.36996,-0.21478 -0.45348,-0.38188 -0.0836,-0.16704 -0.12333,-0.42163 -0.11933,-0.76375 z"
         style="font-weight:bold;fill:#f29c1b;font-family:Trajan Pro;-inkscape-font-specification:Trajan Pro Bold"
         id="path3456"
         inkscape:connector-curvature="0" />
      <path
         d="m 516.17519,370.38448 c 0.007,3.11203 -0.007,5.86205 -0.0398,8.25008 -0.0332,2.38805 -0.12598,4.26295 -0.27845,5.6247 -0.0809,0.92419 -0.25327,1.65346 -0.51713,2.18782 -0.26387,0.53436 -0.70674,0.86585 -1.3286,0.99447 -0.28642,0.0663 -0.62056,0.12464 -1.00242,0.17502 -0.38188,0.0504 -0.81149,0.0769 -1.28883,0.0796 -0.37658,0.001 -0.64177,0.0464 -0.79557,0.13525 -0.15382,0.0888 -0.22807,0.21348 -0.22276,0.37392 0.0106,0.43491 0.43491,0.64706 1.27291,0.63646 1.35646,-0.008 2.82827,-0.0398 4.41546,-0.0955 1.58715,-0.0557 2.78847,-0.0875 3.60395,-0.0955 0.90296,0.008 2.24748,0.0398 4.03356,0.0955 1.78604,0.0557 3.75111,0.0875 5.89521,0.0955 0.35662,0.001 0.64566,-0.0491 0.86711,-0.15116 0.2214,-0.1021 0.33543,-0.26387 0.34209,-0.4853 0.0106,-0.32884 -0.32886,-0.49856 -1.01833,-0.50917 -0.49726,-0.003 -1.0462,-0.0292 -1.64684,-0.0796 -0.60068,-0.0504 -1.13371,-0.10872 -1.5991,-0.17502 -0.92951,-0.13392 -1.56862,-0.47071 -1.91733,-1.01038 -0.34874,-0.53966 -0.55824,-1.24241 -0.6285,-2.10826 -0.122,-1.39225 -0.19626,-3.28571 -0.22276,-5.68039 -0.0265,-2.39466 -0.0371,-5.14734 -0.0318,-8.25804 l 0,-11.20165 c -0.003,-4.66732 0.003,-7.87082 0.0159,-9.61051 0.0132,-1.73961 0.0504,-3.03374 0.11138,-3.88239 0.0464,-1.10581 0.23998,-1.94911 0.58077,-2.52992 0.34075,-0.58072 0.93212,-0.94669 1.77412,-1.09789 0.3739,-0.0636 0.70804,-0.11134 1.00243,-0.14321 0.29434,-0.0318 0.59665,-0.0477 0.90695,-0.0477 0.32085,0.005 0.57013,-0.0371 0.74783,-0.12729 0.17766,-0.0901 0.26782,-0.25984 0.2705,-0.50917 -0.004,-0.18824 -0.12334,-0.32083 -0.35801,-0.39778 -0.23472,-0.0769 -0.5609,-0.11399 -0.97855,-0.11138 -1.28219,0.008 -2.67973,0.0397 -4.19263,0.0954 -1.51292,0.0557 -2.70363,0.0875 -3.57211,0.0954 -1.00112,-0.008 -2.30851,-0.0397 -3.92219,-0.0955 -1.6137,-0.0556 -3.06429,-0.0875 -4.35179,-0.0955 -0.50918,-0.003 -0.89106,0.0346 -1.14564,0.1115 -0.25459,0.077 -0.38188,0.20957 -0.38187,0.3978 0.003,0.24933 0.0928,0.41905 0.27049,0.50917 0.17767,0.0902 0.42695,0.13264 0.74784,0.12729 0.38585,-10e-4 0.77568,0.0173 1.16949,0.0557 0.3938,0.0385 0.76772,0.1048 1.12176,0.19889 0.69479,0.15253 1.21456,0.51585 1.55932,1.08994 0.34474,0.57418 0.54628,1.39892 0.60463,2.47423 0.061,0.84865 0.0981,2.14278 0.11138,3.88239 0.0133,1.73969 0.0186,4.94319 0.0159,9.61051 z"
         style="font-weight:bold;fill:#f29c1b;font-family:Trajan Pro;-inkscape-font-specification:Trajan Pro Bold"
         id="path3458"
         inkscape:connector-curvature="0" />
      <path
         d="m 555.07406,385.8504 c 0.5781,1.47049 1.02892,2.49147 1.35248,3.06296 0.32351,0.57148 0.67886,0.84463 1.06606,0.81944 0.40837,0.0345 0.80085,-0.28906 1.17745,-0.9706 0.37654,-0.68154 0.95996,-1.92794 1.75026,-3.73919 0.71068,-1.62031 1.78735,-4.09189 3.23002,-7.41473 1.44261,-3.32283 3.18756,-7.3219 5.23486,-11.99723 1.66669,-3.76966 3.05894,-6.87504 4.17676,-9.31615 1.11773,-2.44104 2.27131,-5.08499 3.46074,-7.93185 0.84591,-1.98491 1.54071,-3.37716 2.08439,-4.17675 0.5436,-0.79951 1.01564,-1.31663 1.41612,-1.55137 0.59133,-0.36592 1.17475,-0.58868 1.75026,-0.66828 0.57542,-0.0795 1.03154,-0.11133 1.36838,-0.0955 0.32084,0.004 0.57012,-0.0358 0.74784,-0.11933 0.17763,-0.0835 0.2678,-0.23465 0.2705,-0.45348 -0.004,-0.21874 -0.12337,-0.36989 -0.35801,-0.45348 -0.23474,-0.0835 -0.56093,-0.12326 -0.97855,-0.11933 -1.017,0.008 -2.1175,0.0397 -3.30152,0.0954 -1.18411,0.0557 -2.0778,0.0875 -2.68107,0.0954 -0.44159,-0.008 -1.26103,-0.0397 -2.45833,-0.0955 -1.19737,-0.0556 -2.60554,-0.0875 -4.22449,-0.0955 -0.60339,-0.005 -1.05159,0.0373 -1.34461,0.12741 -0.29308,0.0902 -0.43894,0.25996 -0.43757,0.50919 0.009,0.21617 0.11797,0.35672 0.32618,0.42165 0.20814,0.065 0.46007,0.0942 0.7558,0.0875 0.42029,-0.003 0.85255,0.0186 1.29678,0.0636 0.44415,0.0451 0.8605,0.12999 1.24905,0.25458 0.28504,0.10215 0.49454,0.26391 0.6285,0.4853 0.13388,0.22148 0.20018,0.4628 0.19889,0.72397 -0.004,0.29706 -0.0597,0.65772 -0.16707,1.08198 -0.10744,0.42435 -0.24269,0.84865 -0.40574,1.27291 -0.58503,1.58412 -1.69215,4.42696 -3.32137,8.52854 -1.62928,4.10164 -3.32572,8.35883 -5.0893,12.77158 -1.76365,4.41279 -3.13949,7.87794 -4.12755,10.39547 l -0.25458,0 -10.94707,-28.89517 c -0.45084,-1.15487 -0.8062,-2.15463 -1.06607,-2.99931 -0.2599,-0.84459 -0.39249,-1.47839 -0.39778,-1.90142 -0.0106,-0.57276 0.20153,-1.01828 0.63645,-1.33656 0.26253,-0.18559 0.61258,-0.30757 1.05016,-0.36596 0.43755,-0.0583 0.91489,-0.0848 1.43203,-0.0796 0.29037,0.004 0.52108,-0.0358 0.69215,-0.11933 0.17103,-0.0835 0.25854,-0.23465 0.26254,-0.45348 -0.0133,-0.21874 -0.16179,-0.36989 -0.44553,-0.45348 -0.28377,-0.0835 -0.62321,-0.12326 -1.01833,-0.11933 -1.61899,0.008 -3.12261,0.0397 -4.51087,0.0954 -1.38828,0.0557 -2.49412,0.0875 -3.31754,0.0954 -1.14828,-0.008 -2.54319,-0.0397 -4.18472,-0.0955 -1.64154,-0.0556 -3.32285,-0.0875 -5.04394,-0.0955 -0.48662,-0.008 -0.88175,0.024 -1.1854,0.0956 -0.30364,0.0717 -0.4601,0.23078 -0.46938,0.47736 -0.004,0.19098 0.0517,0.33419 0.16707,0.42961 0.11536,0.0955 0.31425,0.14325 0.59668,0.1432 0.26652,-0.005 0.62452,0.005 1.07402,0.0318 0.4495,0.0266 0.91889,0.10082 1.40816,0.22276 1.11248,0.26126 2.02208,0.70943 2.72881,1.34452 0.70673,0.63518 1.40949,1.79936 2.10827,3.49256 z"
         style="font-weight:bold;fill:#f29c1b;font-family:Trajan Pro;-inkscape-font-specification:Trajan Pro Bold"
         id="path3460"
         inkscape:connector-curvature="0" />
      <path
         d="m 587.06363,382.47718 c -0.13658,1.13237 -0.38851,2.19313 -0.75579,3.18229 -0.3673,0.98916 -0.98519,1.6044 -1.85369,1.84572 -0.46541,0.0915 -0.83933,0.14718 -1.12175,0.16707 -0.28244,0.0199 -0.54497,0.0279 -0.78762,0.0239 -0.32088,-0.001 -0.57016,0.0332 -0.74784,0.10343 -0.17768,0.0703 -0.26784,0.18431 -0.27049,0.34209 0.008,0.27978 0.11933,0.46806 0.33414,0.56486 0.2148,0.0968 0.4853,0.14187 0.81148,0.13525 1.07801,-0.008 2.23159,-0.0398 3.46075,-0.0955 1.22916,-0.0557 2.17589,-0.0875 2.84021,-0.0955 0.61258,0.008 1.53545,0.0398 2.76859,0.0955 1.23313,0.0557 2.53787,0.0875 3.91423,0.0955 0.48129,0.007 0.85519,-0.0385 1.12172,-0.13525 0.2665,-0.0968 0.40174,-0.28508 0.40574,-0.56486 -0.008,-0.15779 -0.10344,-0.27182 -0.28641,-0.3421 -0.183,-0.0703 -0.40576,-0.10475 -0.66828,-0.10342 -0.31824,0.003 -0.70012,-0.0186 -1.14562,-0.0636 -0.44554,-0.0451 -0.9547,-0.12995 -1.5275,-0.25459 -0.55294,-0.12066 -1.00641,-0.34077 -1.36043,-0.66032 -0.35404,-0.31956 -0.53702,-0.77834 -0.54894,-1.37634 -10e-6,-0.49856 0.0159,-0.9812 0.0477,-1.44794 0.0318,-0.46673 0.0796,-0.9812 0.1432,-1.54341 l 3.30958,-25.33102 0.25459,0 c 1.21455,2.5936 2.52459,5.3781 3.93012,8.35351 1.40549,2.97546 2.30184,4.90074 2.68903,5.77585 0.3025,0.68519 0.93503,1.98089 1.89759,3.88711 0.96252,1.90624 1.96749,3.87611 3.01492,5.90962 1.04738,2.03353 1.84963,3.58382 2.40676,4.65086 0.5025,0.96795 0.92946,1.737 1.28087,2.30716 0.35135,0.57016 0.66692,0.86187 0.94673,0.87513 0.2572,0.0384 0.5383,-0.18166 0.8433,-0.66033 0.30494,-0.47866 0.8088,-1.44661 1.51159,-2.90383 l 13.87478,-28.89518 0.25458,0 3.81875,28.00414 c 0.12193,0.88574 0.14845,1.54871 0.0796,1.98893 -0.069,0.44021 -0.2016,0.68949 -0.39779,0.74783 -0.22414,0.0928 -0.39651,0.1936 -0.51712,0.30232 -0.12072,0.10873 -0.18171,0.24133 -0.18298,0.39779 -0.0146,0.18828 0.11,0.33679 0.37392,0.44552 0.26381,0.10873 0.75441,0.19359 1.4718,0.25458 0.93146,0.0648 2.3073,0.12611 4.12755,0.18387 1.82013,0.0577 3.58728,0.10489 5.30145,0.14143 1.71405,0.0365 2.87775,0.0554 3.49109,0.0566 0.45872,0.003 0.84589,-0.0504 1.16154,-0.15912 0.31551,-0.10873 0.47993,-0.28906 0.49325,-0.54099 -0.007,-0.18563 -0.10481,-0.30762 -0.29436,-0.36596 -0.18968,-0.0583 -0.431,-0.0849 -0.72397,-0.0796 -0.41111,0.009 -0.94149,-0.0252 -1.59114,-0.10342 -0.64978,-0.0782 -1.43475,-0.25591 -2.3549,-0.53304 -0.92955,-0.26784 -1.6164,-0.9096 -2.06053,-1.92528 -0.44425,-1.01568 -0.79696,-2.51665 -1.05811,-4.50294 l -5.79176,-39.33308 c -0.19099,-1.32591 -0.57287,-1.98358 -1.14563,-1.97302 -0.27717,5e-5 -0.5185,0.12734 -0.72397,0.38188 -0.20557,0.25463 -0.43098,0.6365 -0.67623,1.14562 l -17.31165,36.34173 -17.3753,-35.89621 c -0.40178,-0.80613 -0.72796,-1.34182 -0.97855,-1.60706 -0.25062,-0.26514 -0.49725,-0.38713 -0.73988,-0.36596 -0.51979,0.0107 -0.88045,0.56225 -1.08198,1.65479 z"
         style="font-weight:bold;fill:#f29c1b;font-family:Trajan Pro;-inkscape-font-specification:Trajan Pro Bold"
         id="path3462"
         inkscape:connector-curvature="0" />
    </g>
    <g
       transform="matrix(0.47362044,0,0,0.47362044,-560.52635,417.19443)"
       id="g6075"
       style="fill:#861912;fill-opacity:1">
      <path
         inkscape:connector-curvature="0"
         id="path6077"
         style="font-size:245.88038635px;font-style:normal;font-variant:normal;font-weight:bold;font-stretch:normal;line-height:125%;letter-spacing:0px;word-spacing:0px;fill:#861912;fill-opacity:1;stroke:none;font-family:Trajan Pro;-inkscape-font-specification:Trajan Pro Bold"
         d="m 1530.4478,-252.14979 c 0.026,11.43336 -0.026,21.69872 -0.1537,30.79613 -0.1281,9.09748 -0.4866,16.28938 -1.0757,21.57572 -0.4201,3.62158 -1.1167,6.64382 -2.0899,9.06672 -0.9733,2.42293 -2.6535,3.90843 -5.0405,4.45653 -1.1065,0.25612 -2.3973,0.48151 -3.8726,0.67616 -1.4753,0.19466 -3.1349,0.29711 -4.979,0.30735 -1.4548,0.005 -2.4793,0.17929 -3.0735,0.52249 -0.5942,0.3432 -0.881,0.82471 -0.8605,1.44453 0.041,1.68015 1.6801,2.49974 4.9175,2.45877 5.2403,-0.0307 10.9262,-0.15368 17.0579,-0.36882 6.1315,-0.21515 10.7724,-0.33809 13.9228,-0.36881 3.3705,0.0307 8.493,0.15367 15.3674,0.36882 6.8742,0.21514 14.4555,0.33808 22.7437,0.36882 1.3777,0.005 2.4943,-0.18955 3.3498,-0.58398 0.8553,-0.39442 1.2959,-1.01936 1.3216,-1.8748 0.041,-1.27037 -1.2705,-1.92604 -3.9341,-1.96702 -1.921,-0.0102 -4.0417,-0.11269 -6.362,-0.30735 -2.3206,-0.19465 -4.3798,-0.42004 -6.1777,-0.67616 -3.5807,-0.55322 -6.0087,-2.02848 -7.2841,-4.42579 -1.2756,-2.3973 -2.0439,-5.34782 -2.3051,-8.85158 -0.5892,-5.40416 -0.9477,-12.66777 -1.0757,-21.79088 -0.1282,-9.12302 -0.1794,-19.39862 -0.1537,-30.82685 l 0,-98.35088 c 0.041,-2.66351 0.6966,-4.22073 1.967,-4.67167 1.1371,-0.36352 2.5509,-0.61964 4.2414,-0.76837 1.6903,-0.14838 3.4729,-0.22009 5.3478,-0.21514 2.9453,-0.1074 6.6437,0.47656 11.0952,1.75188 4.4513,1.27566 8.9488,3.8881 13.4926,7.83733 6.6283,6.40833 10.7672,13.07774 12.4167,20.00826 1.6494,6.9308 2.346,12.55524 2.09,16.87332 -0.5124,12.6628 -4.2825,22.55935 -11.3103,29.68968 -7.0281,7.13053 -14.2405,10.75721 -21.6372,10.88007 -2.546,-0.0102 -4.3388,0.19473 -5.3786,0.61468 -1.0399,0.42013 -1.5419,1.11678 -1.506,2.08996 0.046,0.82992 0.3841,1.38315 1.0142,1.65968 0.63,0.2767 1.2755,0.4611 1.9363,0.55322 0.6761,0.1179 1.5367,0.18961 2.5817,0.21514 1.0449,0.0257 1.9055,0.0359 2.5818,0.0307 17.7952,-0.29702 32.2405,-5.84974 43.3358,-16.65818 11.0951,-10.80825 16.8117,-25.0896 17.15,-42.84411 -0.1744,-6.59756 -1.5472,-12.45763 -4.1185,-17.58022 -2.5716,-5.12228 -5.2967,-9.01533 -8.1754,-11.67917 -1.7059,-2.19735 -5.978,-4.99421 -12.8164,-8.39057 -6.8385,-3.39599 -17.8108,-5.2708 -32.9168,-5.62443 -5.8037,0.0307 -11.8993,0.15347 -18.2869,0.36837 -6.3878,0.21527 -12.1761,0.33819 -17.3651,0.36876 -3.6729,-0.0306 -8.8056,-0.1535 -15.3981,-0.36883 -6.5926,-0.21496 -13.2621,-0.3379 -20.0083,-0.36881 -1.839,-0.0149 -3.2016,0.13888 -4.0878,0.46146 -0.8862,0.32296 -1.3267,0.90694 -1.3216,1.75195 0.01,0.84538 0.3637,1.42934 1.0757,1.75187 0.712,0.32289 1.7468,0.47657 3.1042,0.46102 1.7826,1.9e-4 3.5652,0.0617 5.3479,0.18441 1.7825,0.12312 3.1963,0.30753 4.2413,0.55322 3.9596,0.81465 6.6745,2.32065 8.1447,4.518 1.4701,2.1977 2.2795,5.36336 2.4281,9.49701 0.2356,3.27852 0.379,8.27802 0.4302,14.99851 0.051,6.72078 0.072,19.09659 0.062,37.12746 z" />
      <path
         inkscape:connector-curvature="0"
         id="path6079"
         style="font-size:245.88038635px;font-style:normal;font-variant:normal;font-weight:bold;font-stretch:normal;line-height:125%;letter-spacing:0px;word-spacing:0px;fill:#861912;fill-opacity:1;stroke:none;font-family:Trajan Pro;-inkscape-font-specification:Trajan Pro Bold"
         d="m 1904.1938,-205.43311 c -0.5276,4.37458 -1.5009,8.47253 -2.9198,12.29386 -1.4189,3.82135 -3.8059,6.19816 -7.1611,7.13044 -1.798,0.35344 -3.2425,0.56859 -4.3336,0.64542 -1.0911,0.0768 -2.1053,0.10758 -3.0427,0.0922 -1.2397,-0.005 -2.2027,0.12807 -2.8891,0.39955 -0.6864,0.2715 -1.0347,0.71202 -1.045,1.32159 0.031,1.08083 0.461,1.80822 1.2909,2.18216 0.8298,0.37394 1.8748,0.5481 3.1349,0.52249 4.1646,-0.0307 8.6211,-0.15368 13.3696,-0.36882 4.7485,-0.21515 8.406,-0.33809 10.9723,-0.36881 2.3666,0.0307 5.9318,0.15367 10.6957,0.36882 4.7639,0.21514 9.8044,0.33808 15.1215,0.36882 1.8593,0.0256 3.3038,-0.14857 4.3335,-0.52251 1.0295,-0.37394 1.552,-1.10132 1.5674,-2.18215 -0.031,-0.60957 -0.3996,-1.0501 -1.1064,-1.3216 -0.707,-0.27149 -1.5676,-0.40467 -2.5817,-0.39954 -1.2295,0.0102 -2.7047,-0.0717 -4.4258,-0.24588 -1.7212,-0.17416 -3.6882,-0.502 -5.9011,-0.98351 -2.1361,-0.46613 -3.888,-1.31646 -5.2556,-2.55098 -1.3678,-1.2345 -2.0746,-3.00686 -2.1207,-5.31709 0,-1.92602 0.061,-3.79059 0.1844,-5.59371 0.1229,-1.80308 0.3073,-3.79058 0.5532,-5.96252 l 12.7856,-97.85913 0.9836,0 c 4.6921,10.0196 9.753,20.77672 15.1829,32.27138 5.4297,11.49484 8.8925,18.93262 10.3883,22.31336 1.1686,2.64704 3.6122,7.65261 7.3308,15.01672 3.7184,7.36422 7.6008,14.97426 11.6473,22.83015 4.0462,7.85595 7.1455,13.84503 9.2978,17.96726 1.9413,3.73939 3.5907,6.7104 4.9482,8.91305 1.3574,2.20265 2.5765,3.32958 3.6575,3.38081 0.9936,0.14855 2.0796,-0.70178 3.2578,-2.55098 1.1781,-1.84919 3.1246,-5.58857 5.8396,-11.21814 l 53.6013,-111.62826 0.9835,0 14.7526,108.18598 c 0.4711,3.4218 0.5735,5.98302 0.3073,7.68366 -0.2665,1.70066 -0.7788,2.66367 -1.5367,2.88906 -0.8659,0.35858 -1.5318,0.74788 -1.9977,1.16792 -0.4664,0.42004 -0.702,0.93228 -0.7069,1.53673 -0.057,0.72739 0.4249,1.3011 1.4445,1.72114 1.0192,0.42004 2.9145,0.74787 5.6859,0.9835 3.5984,0.25044 8.9136,0.48721 15.9456,0.71032 7.0316,0.22311 13.8584,0.40524 20.4807,0.54639 6.6217,0.14115 11.1173,0.214 13.4868,0.21856 1.7721,0.0102 3.2678,-0.19466 4.4872,-0.6147 1.2189,-0.42004 1.8541,-1.11669 1.9056,-2.08995 -0.026,-0.71714 -0.4049,-1.18841 -1.1372,-1.4138 -0.7328,-0.22538 -1.665,-0.32783 -2.7968,-0.30734 -1.5883,0.0359 -3.6372,-0.0973 -6.147,-0.39955 -2.5102,-0.30223 -5.5427,-0.98863 -9.0974,-2.05922 -3.5911,-1.03473 -6.2445,-3.51399 -7.9603,-7.43779 -1.7163,-3.92378 -3.0788,-9.72238 -4.0877,-17.39581 l -22.3748,-151.95213 c -0.7379,-5.12225 -2.2131,-7.66298 -4.4258,-7.62219 -1.0708,1.9e-4 -2.0031,0.49194 -2.7969,1.47526 -0.7942,0.9837 -1.665,2.45896 -2.6124,4.42579 l -66.8786,140.3959 -67.1245,-138.67476 c -1.5522,-3.11426 -2.8123,-5.18373 -3.7804,-6.2084 -0.9682,-1.0243 -1.921,-1.49556 -2.8583,-1.41379 -2.008,0.0412 -3.4014,2.17211 -4.1799,6.39281 z" />
      <path
         inkscape:connector-curvature="0"
         id="path6081"
         style="font-size:245.88038635px;font-style:normal;font-variant:normal;font-weight:bold;font-stretch:normal;line-height:125%;letter-spacing:0px;word-spacing:0px;fill:#861912;fill-opacity:1;stroke:none;font-family:Trajan Pro;-inkscape-font-specification:Trajan Pro Bold"
         d="m 2175.8838,-252.14979 c 0.026,11.43336 -0.026,21.69872 -0.1537,30.79613 -0.1281,9.09748 -0.4866,16.28938 -1.0757,21.57572 -0.4201,3.62158 -1.1167,6.64382 -2.0899,9.06672 -0.9733,2.42293 -2.6535,3.90843 -5.0405,4.45653 -1.1065,0.25612 -2.3973,0.48151 -3.8726,0.67616 -1.4753,0.19466 -3.1349,0.29711 -4.979,0.30735 -1.4548,0.005 -2.4793,0.17929 -3.0735,0.52249 -0.5942,0.3432 -0.881,0.82471 -0.8605,1.44453 0.041,1.68015 1.6801,2.49974 4.9175,2.45877 5.2403,-0.0307 10.9262,-0.15368 17.0579,-0.36882 6.1315,-0.21515 10.7724,-0.33809 13.9228,-0.36881 3.3705,0.0307 8.493,0.15367 15.3674,0.36882 6.8742,0.21514 14.4555,0.33808 22.7437,0.36882 1.3777,0.005 2.4943,-0.18955 3.3498,-0.58398 0.8553,-0.39442 1.2959,-1.01936 1.3216,-1.8748 0.041,-1.27037 -1.2705,-1.92604 -3.9341,-1.96702 -1.921,-0.0102 -4.0416,-0.11269 -6.362,-0.30735 -2.3206,-0.19465 -4.3798,-0.42004 -6.1777,-0.67616 -3.5807,-0.55322 -6.0087,-2.02848 -7.2841,-4.42579 -1.2756,-2.3973 -2.0439,-5.34782 -2.3051,-8.85158 -0.5892,-5.40416 -0.9477,-12.66777 -1.0757,-21.79088 -0.1282,-9.12302 -0.1794,-19.39862 -0.1537,-30.82685 l 0,-98.35088 c 0.041,-2.66351 0.6966,-4.22073 1.967,-4.67167 1.1371,-0.36352 2.5509,-0.61964 4.2414,-0.76837 1.6903,-0.14838 3.4729,-0.22009 5.3478,-0.21514 2.9454,-0.1074 6.6438,0.47656 11.0952,1.75188 4.4514,1.27566 8.9489,3.8881 13.4926,7.83733 6.6283,6.40833 10.7672,13.07774 12.4168,20.00826 1.6493,6.9308 2.3459,12.55524 2.0899,16.87332 -0.5123,12.6628 -4.2825,22.55935 -11.3103,29.68968 -7.0281,7.13053 -14.2405,10.75721 -21.6372,10.88007 -2.546,-0.0102 -4.3388,0.19473 -5.3786,0.61468 -1.0399,0.42013 -1.5419,1.11678 -1.506,2.08996 0.046,0.82992 0.3841,1.38315 1.0143,1.65968 0.6299,0.2767 1.2754,0.4611 1.9362,0.55322 0.6761,0.1179 1.5367,0.18961 2.5817,0.21514 1.0449,0.0257 1.9055,0.0359 2.5818,0.0307 17.7952,-0.29702 32.2405,-5.84974 43.3358,-16.65818 11.0951,-10.80825 16.8117,-25.0896 17.15,-42.84411 -0.1744,-6.59756 -1.5472,-12.45763 -4.1185,-17.58022 -2.5716,-5.12228 -5.2967,-9.01533 -8.1754,-11.67917 -1.7059,-2.19735 -5.978,-4.99421 -12.8164,-8.39057 -6.8385,-3.39599 -17.8108,-5.2708 -32.9168,-5.62443 -5.8037,0.0307 -11.8993,0.15347 -18.2869,0.36837 -6.3878,0.21527 -12.1761,0.33819 -17.3651,0.36876 -3.6729,-0.0306 -8.8056,-0.1535 -15.3981,-0.36883 -6.5926,-0.21496 -13.2621,-0.3379 -20.0083,-0.36881 -1.839,-0.0149 -3.2016,0.13888 -4.0878,0.46146 -0.8862,0.32296 -1.3267,0.90694 -1.3216,1.75195 0.01,0.84538 0.3637,1.42934 1.0757,1.75187 0.712,0.32289 1.7468,0.47657 3.1042,0.46102 1.7826,1.9e-4 3.5652,0.0617 5.3479,0.18441 1.7825,0.12312 3.1963,0.30753 4.2413,0.55322 3.9596,0.81465 6.6745,2.32065 8.1447,4.518 1.4701,2.1977 2.2795,5.36336 2.4281,9.49701 0.2356,3.27852 0.379,8.27802 0.4302,14.99851 0.051,6.72078 0.072,19.09659 0.061,37.12746 z" />
      <path
         inkscape:connector-curvature="0"
         id="path6083"
         style="font-size:245.88038635px;font-style:normal;font-variant:normal;font-weight:bold;font-stretch:normal;line-height:125%;letter-spacing:0px;word-spacing:0px;fill:#861912;fill-opacity:1;stroke:none;font-family:Trajan Pro;-inkscape-font-specification:Trajan Pro Bold"
         d="m 2336.7625,-252.14979 c 0.026,11.43336 -0.026,21.69872 -0.1536,30.79613 -0.1281,9.09748 -0.4867,16.28938 -1.0757,21.57572 -0.4201,3.62158 -1.1168,6.64382 -2.09,9.06672 -0.9733,2.42293 -2.6535,3.90843 -5.0405,4.45653 -1.1065,0.25612 -2.3973,0.48151 -3.8726,0.67616 -1.4752,0.19466 -3.1349,0.29711 -4.979,0.30735 -1.4548,0.005 -2.4793,0.17929 -3.0734,0.52249 -0.5943,0.3432 -0.8811,0.82471 -0.8606,1.44453 0.041,1.68015 1.6801,2.49974 4.9175,2.45877 2.5049,-0.0205 5.2403,-0.10245 8.2062,-0.24588 2.9658,-0.14343 5.8856,-0.22539 8.7594,-0.24588 2.9966,-0.11781 5.7319,-0.18953 8.2061,-0.21514 2.4741,-0.0256 4.4104,-0.0359 5.8089,-0.0307 3.6317,0 7.494,0.0615 11.5869,0.18441 4.0928,0.12293 8.7542,0.30734 13.9843,0.55322 5.2453,0.1383 11.3512,0.29197 18.3179,0.46102 6.9664,0.16903 15.0393,0.26124 24.2189,0.27661 4.5332,0.13318 7.6989,-0.13319 9.497,-0.79911 1.7978,-0.66591 3.0579,-2.53048 3.7803,-5.5937 0.6709,-2.93515 1.3573,-7.39167 2.0592,-13.36957 0.7017,-5.97787 1.0807,-10.6188 1.1372,-13.9228 0.041,-1.26009 -0.041,-2.30507 -0.2458,-3.13494 -0.2051,-0.8298 -0.7788,-1.26008 -1.7212,-1.29085 -0.8351,-0.0153 -1.4395,0.26128 -1.8133,0.82983 -0.3741,0.56863 -0.6712,1.5214 -0.8913,2.85833 -0.8146,4.98416 -2.0748,8.90795 -3.7804,11.77137 -1.7059,2.86346 -4.1339,5.00464 -7.2841,6.42354 -3.3605,1.41381 -7.2125,2.27438 -11.5562,2.58171 -4.344,0.30736 -8.196,0.4303 -11.5563,0.36882 -12.171,0.19979 -20.162,-1.1218 -23.973,-3.96478 -3.8112,-2.84294 -5.6552,-8.4059 -5.5322,-16.68891 -0.1077,-4.185 -0.1384,-10.38315 -0.092,-18.59446 0.046,-8.21122 0.077,-14.71671 0.092,-19.51651 l 0,-19.4243 c -0.015,-0.74779 0.077,-1.34199 0.2766,-1.78261 0.1997,-0.44044 0.5992,-0.66583 1.1986,-0.67616 3.7445,10e-5 9.7172,0.0616 17.9183,0.18441 8.201,0.12303 13.8664,0.30744 16.9963,0.55322 4.4769,0.52258 7.7553,1.62903 9.8351,3.31934 2.0796,1.69049 3.3909,3.78045 3.934,6.26987 0.3482,1.61365 0.5736,3.18112 0.6762,4.7024 0.1023,1.52144 0.2048,2.9045 0.3073,4.14918 -0.015,0.63013 0.1382,1.15262 0.4611,1.56747 0.3225,0.41499 0.9065,0.63013 1.7518,0.64543 1.0602,-0.0716 1.7057,-0.60438 1.9363,-1.59821 0.2304,-0.99368 0.3226,-2.01816 0.2766,-3.07346 0.026,-1.13198 0.1587,-3.47806 0.3996,-7.03824 0.2406,-3.56001 0.4353,-6.70518 0.5839,-9.43553 0.5121,-6.14171 0.9629,-10.51628 1.3523,-13.1237 0.3892,-2.60722 0.5941,-4.21566 0.6147,-4.82534 -0.01,-0.72728 -0.1742,-1.23953 -0.4917,-1.53674 -0.3177,-0.29699 -0.7275,-0.44041 -1.2294,-0.43028 -0.5943,0.0104 -1.1885,0.29721 -1.7826,0.86057 -0.5943,0.56358 -1.3115,1.34219 -2.1514,2.33584 -1.0912,1.19875 -2.5972,2.05932 -4.518,2.5817 -1.9211,0.5226 -4.3491,0.89142 -7.2841,1.10646 -2.166,0.16098 -6.0029,0.27633 -11.5107,0.34604 -5.5081,0.0699 -11.0024,0.11242 -16.4829,0.12749 -5.4807,0.0153 -9.263,0.0214 -11.3468,0.0182 -0.7172,-0.005 -1.1885,-0.24064 -1.4138,-0.70689 -0.2255,-0.46604 -0.3279,-1.13196 -0.3073,-1.99776 l 0,-62.20693 c -0.041,-1.68 0.5326,-2.49959 1.7211,-2.45878 1.9017,0.003 5.3379,0.0518 10.3086,0.14571 4.9706,0.0943 9.9003,0.21568 14.7891,0.36425 4.8886,0.14892 8.1609,0.30677 9.8169,0.47355 5.9573,0.7378 10.0245,1.84425 12.2016,3.31934 2.1769,1.47543 3.601,3.31951 4.2721,5.53224 0.5992,1.55227 0.9988,3.1812 1.1987,4.88681 0.1996,1.70593 0.2918,3.02752 0.2766,3.96477 -0.015,1.11172 0.1382,1.96204 0.461,2.55097 0.3226,0.58924 0.9066,0.88634 1.7519,0.89131 0.84,-0.0357 1.4342,-0.3328 1.7826,-0.8913 0.3482,-0.5582 0.5736,-1.16264 0.6762,-1.81334 0.2508,-1.81319 0.4865,-4.57931 0.7069,-8.29836 0.2201,-3.71873 0.3943,-6.36191 0.5225,-7.92954 0.4045,-5.50645 0.8245,-9.36877 1.2601,-11.58696 0.4353,-2.21784 0.6709,-3.68285 0.7069,-4.39506 0.015,-0.62988 -0.077,-1.15237 -0.2766,-1.56747 -0.1999,-0.41473 -0.5995,-0.62988 -1.1987,-0.64543 -0.625,0.0258 -1.2807,0.15899 -1.967,0.39956 -0.6865,0.24094 -1.3422,0.43559 -1.967,0.58395 -1.0093,0.24607 -2.4333,0.49194 -4.2721,0.73763 -1.8391,0.24607 -3.9393,0.49194 -6.3006,0.73764 -2.084,0.0806 -7.5055,0.13829 -16.2644,0.17302 -8.7591,0.0351 -17.6956,0.0563 -26.8097,0.0638 -9.1142,0.008 -15.246,0.0108 -18.3952,0.009 -1.752,-0.005 -3.9649,-0.0562 -6.6387,-0.15368 -2.674,-0.0971 -5.6245,-0.20984 -8.8516,-0.33808 -3.1042,-0.0101 -6.3621,-0.051 -9.7736,-0.12294 -3.4116,-0.0715 -6.7924,-0.11251 -10.1425,-0.12294 -1.8389,-0.0152 -3.2015,0.1385 -4.0877,0.46103 -0.8862,0.32289 -1.3267,0.90685 -1.3216,1.75187 0.01,0.84539 0.3637,1.42934 1.0757,1.75187 0.7121,0.3229 1.7468,0.47657 3.1043,0.46102 1.7825,1.9e-4 3.5651,0.0617 5.3478,0.18442 1.7826,0.12311 3.1964,0.30752 4.2414,0.55322 3.9596,0.81464 6.6745,2.32064 8.1446,4.51799 1.4701,2.1977 2.2795,5.36337 2.4281,9.49701 0.2356,3.27852 0.379,8.27802 0.4303,14.99851 0.051,6.72079 0.072,19.09659 0.061,37.12746 z" />
      <path
         inkscape:connector-curvature="0"
         id="path6085"
         style="font-size:245.88038635px;font-style:normal;font-variant:normal;font-weight:bold;font-stretch:normal;line-height:125%;letter-spacing:0px;word-spacing:0px;fill:#861912;fill-opacity:1;stroke:none;font-family:Trajan Pro;-inkscape-font-specification:Trajan Pro Bold"
         d="m 2492.3587,-252.14979 c 0.026,12.02243 -0.026,22.64636 -0.1536,31.87183 -0.1281,9.22555 -0.4867,16.46868 -1.0758,21.72941 -0.3125,3.57035 -0.9784,6.38769 -1.9977,8.45202 -1.0194,2.06435 -2.7303,3.34497 -5.1327,3.84184 -1.1065,0.25612 -2.3973,0.48151 -3.8726,0.67616 -1.4753,0.19466 -3.1349,0.29711 -4.979,0.30735 -1.4548,0.005 -2.4793,0.17929 -3.0734,0.52249 -0.5943,0.3432 -0.8811,0.82471 -0.8606,1.44453 0.041,1.68015 1.6801,2.49974 4.9175,2.45877 5.2403,-0.0307 10.9262,-0.15368 17.0579,-0.36882 6.1315,-0.21515 10.7724,-0.33809 13.9228,-0.36881 3.4883,0.0307 8.6825,0.15367 15.5825,0.36882 6.8999,0.21514 14.4914,0.33808 22.7745,0.36882 1.3777,0.005 2.4943,-0.18955 3.3498,-0.58398 0.8553,-0.39442 1.2959,-1.01936 1.3216,-1.8748 0.041,-1.27037 -1.2705,-1.92604 -3.9341,-1.96702 -1.921,-0.0102 -4.0417,-0.11269 -6.362,-0.30735 -2.3206,-0.19465 -4.3798,-0.42004 -6.1777,-0.67616 -3.5909,-0.51736 -6.0599,-1.81846 -7.407,-3.9033 -1.3473,-2.08483 -2.1567,-4.79972 -2.4281,-8.14468 -0.4713,-5.37855 -0.7582,-12.6934 -0.8606,-21.94455 -0.1025,-9.25109 -0.1435,-19.88526 -0.1229,-31.90257 l 0,-43.27439 c -0.01,-18.03086 0.01,-30.40667 0.062,-37.12746 0.051,-6.72048 0.1946,-11.71998 0.4303,-14.99851 0.1792,-4.27195 0.927,-7.52982 2.2436,-9.77362 1.3164,-2.24345 3.601,-3.65724 6.8538,-4.24138 1.4445,-0.2457 2.7353,-0.43011 3.8726,-0.55323 1.1371,-0.12276 2.305,-0.18423 3.5037,-0.1844 1.2396,0.0207 2.2026,-0.14325 2.8891,-0.49176 0.6863,-0.34814 1.0346,-1.00382 1.045,-1.96701 -0.016,-0.72721 -0.4765,-1.23946 -1.3831,-1.53674 -0.9068,-0.29692 -2.1669,-0.44035 -3.7804,-0.43028 -4.9533,0.0307 -10.3523,0.15346 -16.197,0.36836 -5.8447,0.21528 -10.4447,0.3382 -13.7998,0.36876 -3.8675,-0.0306 -8.9183,-0.15349 -15.1523,-0.36882 -6.234,-0.21496 -11.838,-0.3379 -16.8118,-0.36881 -1.9671,-0.01 -3.4424,0.13376 -4.4259,0.43073 -0.9835,0.29734 -1.4753,0.8096 -1.4753,1.5368 0.01,0.9632 0.3586,1.61887 1.045,1.96701 0.6864,0.34851 1.6494,0.51243 2.8891,0.49176 1.4906,-0.005 2.9966,0.0668 4.518,0.21514 1.5213,0.14873 2.9658,0.40485 4.3335,0.76837 2.6842,0.58925 4.6922,1.9928 6.024,4.21064 1.3318,2.2182 2.1104,5.40435 2.3359,9.55848 0.2356,3.27853 0.379,8.27803 0.4303,14.99851 0.051,6.72079 0.072,19.0966 0.061,37.12746 z" />
    </g>
    <g
       transform="matrix(0,-1,1,0,0,0)"
       style="font-size:44.49934387px;font-style:normal;font-variant:normal;font-weight:normal;font-stretch:normal;line-height:125%;letter-spacing:0px;word-spacing:0px;fill:#ffffff;fill-opacity:1;stroke:none;font-family:Georgia;-inkscape-font-specification:Georgia"
       id="text6122">
      <path
         d="m -365.22631,139.12641 c 5.7125,-0.1233 10.19575,-1.89027 13.44975,-5.30091 3.25393,-3.41064 4.91151,-7.72516 4.97274,-12.94358 -0.0566,-5.15164 -1.66782,-9.19917 -4.83368,-12.14261 -3.16593,-2.94337 -7.54721,-4.44335 -13.14383,-4.49993 -4.42956,0.0745 -7.9955,1.01828 -10.69783,2.83144 -2.70235,1.81321 -4.66304,4.04914 -5.88208,6.70777 -1.21905,2.65869 -1.81841,5.29345 -1.79808,7.9043 -0.0151,2.69494 0.58865,5.36926 1.81127,8.02297 1.22261,2.65372 3.15473,4.86987 5.79637,6.64844 2.64162,1.77858 6.08341,2.70262 10.32537,2.77211 z m 1.86894,-2.22494 c -4.30712,-0.1131 -7.65194,-1.72247 -10.03447,-4.82811 -2.38255,-3.10564 -3.59143,-7.02894 -3.62665,-11.76993 0.13627,-5.4279 1.32105,-9.13427 3.55434,-11.11913 2.23327,-1.9848 4.69739,-2.92112 7.39236,-2.80898 3.73602,0.0501 6.82126,1.4963 9.25574,4.33863 2.43443,2.84238 3.69522,6.78052 3.7824,11.81442 -0.0698,4.22602 -0.73124,7.37335 -1.98432,9.44198 -1.25313,2.06865 -2.67929,3.42284 -4.27847,4.06257 -1.59923,0.63974 -2.95287,0.92926 -4.06093,0.86855 z"
         style="font-weight:bold;fill:#ffffff;font-family:Trajan Pro;-inkscape-font-specification:Trajan Pro Bold"
         id="path3465"
         inkscape:connector-curvature="0" />
      <path
         d="m -337.02538,125.59879 c 0.005,2.0692 -0.005,3.92702 -0.0278,5.57347 -0.0232,1.64646 -0.0881,2.94805 -0.19469,3.90477 -0.076,0.65543 -0.2021,1.20239 -0.37824,1.64089 -0.17614,0.4385 -0.48022,0.70734 -0.91222,0.80654 -0.20025,0.0463 -0.43387,0.0871 -0.70086,0.12237 -0.26699,0.0352 -0.56736,0.0538 -0.9011,0.0556 -0.26329,9.3e-4 -0.4487,0.0325 -0.55623,0.0946 -0.10754,0.0621 -0.15946,0.14926 -0.15575,0.26143 0.007,0.30408 0.30407,0.45241 0.88998,0.44499 0.94838,-0.006 1.97742,-0.0278 3.08712,-0.0668 1.10968,-0.0389 1.9496,-0.0612 2.51975,-0.0667 0.61,0.006 1.53705,0.0278 2.78118,0.0667 1.2441,0.0389 2.61615,0.0612 4.11615,0.0668 0.24934,9.3e-4 0.45142,-0.0343 0.60625,-0.10569 0.1548,-0.0714 0.23453,-0.18448 0.23918,-0.3393 0.007,-0.22991 -0.22993,-0.34857 -0.71198,-0.35599 -0.34766,-0.002 -0.73147,-0.0204 -1.15141,-0.0556 -0.41997,-0.0352 -0.79265,-0.076 -1.11803,-0.12237 -0.64803,-0.10012 -1.08745,-0.36712 -1.31827,-0.80098 -0.23085,-0.43386 -0.36991,-0.96785 -0.41718,-1.60196 -0.10662,-0.97804 -0.17152,-2.29261 -0.19468,-3.9437 -0.0232,-1.65108 -0.0325,-3.51076 -0.0278,-5.57903 l 0,-17.79951 c 0.007,-0.48204 0.12606,-0.76387 0.35599,-0.84548 0.20579,-0.0658 0.46166,-0.11214 0.7676,-0.13906 0.30591,-0.0268 0.62853,-0.0398 0.96785,-0.0389 0.53304,-0.0194 1.20238,0.0862 2.00801,0.31705 0.80559,0.23087 1.61955,0.70367 2.44187,1.4184 1.19959,1.15978 1.94865,2.3668 2.24718,3.62109 0.29849,1.25433 0.42457,2.27224 0.37824,3.05372 -0.0927,2.29171 -0.77504,4.08279 -2.04694,5.37323 -1.27194,1.29048 -2.57724,1.94684 -3.91589,1.96907 -0.46077,-0.002 -0.78524,0.0353 -0.97341,0.11125 -0.18821,0.076 -0.27906,0.20211 -0.27256,0.37824 0.008,0.1502 0.0695,0.25032 0.18356,0.30037 0.11401,0.0501 0.23082,0.0834 0.35043,0.10012 0.12235,0.0213 0.2781,0.0343 0.46723,0.0389 0.18911,0.005 0.34485,0.007 0.46724,0.006 3.22058,-0.0538 5.83488,-1.05869 7.84291,-3.0148 2.00798,-1.95607 3.04258,-4.5407 3.10379,-7.75391 -0.0316,-1.19402 -0.28,-2.25457 -0.74536,-3.18166 -0.4654,-0.92703 -0.9586,-1.63159 -1.47958,-2.11369 -0.30873,-0.39768 -1.0819,-0.90385 -2.3195,-1.51852 -1.23764,-0.61461 -3.2234,-0.95391 -5.95727,-1.01791 -1.05035,0.006 -2.15354,0.0278 -3.30957,0.0667 -1.15605,0.039 -2.20362,0.0612 -3.14272,0.0667 -0.66472,-0.006 -1.59363,-0.0278 -2.78675,-0.0667 -1.19313,-0.0389 -2.40016,-0.0612 -3.6211,-0.0667 -0.33282,-0.003 -0.57942,0.0251 -0.7398,0.0835 -0.16038,0.0585 -0.24011,0.16414 -0.23918,0.31707 9.3e-4,0.153 0.0658,0.25868 0.19468,0.31705 0.12886,0.0584 0.31613,0.0863 0.5618,0.0834 0.32261,3e-5 0.64523,0.0112 0.96785,0.0334 0.32261,0.0223 0.57848,0.0557 0.7676,0.10012 0.71661,0.14744 1.20795,0.41999 1.47402,0.81767 0.26606,0.39774 0.41254,0.97066 0.43943,1.71876 0.0426,0.59335 0.0686,1.49816 0.0779,2.71443 0.009,1.21632 0.013,3.45609 0.0111,6.71931 z"
         style="font-weight:bold;fill:#ffffff;font-family:Trajan Pro;-inkscape-font-specification:Trajan Pro Bold"
         id="path3467"
         inkscape:connector-curvature="0" />
      <path
         d="m -307.9096,125.59879 c 0.005,2.0692 -0.005,3.92702 -0.0278,5.57347 -0.0232,1.64646 -0.0881,2.94805 -0.19468,3.90477 -0.076,0.65543 -0.20211,1.20239 -0.37824,1.64089 -0.17615,0.4385 -0.48023,0.70734 -0.91223,0.80654 -0.20025,0.0463 -0.43387,0.0871 -0.70085,0.12237 -0.267,0.0352 -0.56737,0.0538 -0.9011,0.0556 -0.26329,9.3e-4 -0.4487,0.0325 -0.55624,0.0946 -0.10754,0.0621 -0.15946,0.14926 -0.15574,0.26143 0.007,0.30408 0.30407,0.45241 0.88997,0.44499 0.45333,-0.004 0.94838,-0.0185 1.48515,-0.0445 0.53676,-0.026 1.06518,-0.0408 1.58527,-0.0445 0.54232,-0.0213 1.03737,-0.0343 1.48514,-0.0389 0.44776,-0.005 0.79819,-0.006 1.05129,-0.006 0.65727,0 1.35627,0.0111 2.097,0.0334 0.74071,0.0222 1.58433,0.0556 2.53087,0.10012 0.94929,0.025 2.05434,0.0528 3.31516,0.0834 1.26078,0.0306 2.72182,0.0473 4.38313,0.0501 0.82042,0.0241 1.39334,-0.0241 1.71876,-0.14462 0.32537,-0.12052 0.55343,-0.45797 0.68417,-1.01235 0.12142,-0.5312 0.24564,-1.33774 0.37268,-2.41962 0.12698,-1.08187 0.19558,-1.92179 0.2058,-2.51974 0.007,-0.22806 -0.007,-0.41718 -0.0445,-0.56736 -0.0371,-0.15018 -0.14094,-0.22805 -0.3115,-0.23362 -0.15113,-0.003 -0.26053,0.0473 -0.32818,0.15018 -0.0677,0.10291 -0.12146,0.27534 -0.1613,0.5173 -0.14743,0.90203 -0.37549,1.61216 -0.68417,2.13038 -0.30874,0.51823 -0.74816,0.90574 -1.31828,1.16253 -0.60817,0.25587 -1.30532,0.41161 -2.09144,0.46723 -0.78616,0.0556 -1.48331,0.0779 -2.09144,0.0668 -2.20271,0.0362 -3.64892,-0.20302 -4.33863,-0.71754 -0.68975,-0.51451 -1.02349,-1.5213 -1.00122,-3.02035 -0.0195,-0.7574 -0.0251,-1.87914 -0.0167,-3.36522 0.008,-1.48607 0.0139,-2.66343 0.0167,-3.53209 l 0,-3.51541 c -0.003,-0.13533 0.0139,-0.24287 0.0501,-0.32261 0.0361,-0.0797 0.10845,-0.1205 0.21693,-0.12237 0.67766,10e-6 1.75861,0.0111 3.24285,0.0334 1.4842,0.0223 2.50952,0.0556 3.07597,0.10012 0.81023,0.0946 1.40355,0.29482 1.77996,0.60074 0.37636,0.30594 0.61369,0.68418 0.71198,1.13471 0.063,0.29204 0.1038,0.57572 0.12237,0.85104 0.0185,0.27535 0.0371,0.52566 0.0556,0.75092 -0.003,0.11404 0.025,0.2086 0.0834,0.28368 0.0584,0.0751 0.16406,0.11404 0.31705,0.11681 0.19188,-0.013 0.30869,-0.10938 0.35043,-0.28924 0.0417,-0.17984 0.0584,-0.36525 0.0501,-0.55624 0.005,-0.20486 0.0287,-0.62946 0.0723,-1.27378 0.0435,-0.64429 0.0788,-1.2135 0.10568,-1.70764 0.0927,-1.11152 0.17427,-1.90323 0.24475,-2.37512 0.0704,-0.47185 0.10751,-0.76295 0.11124,-0.87329 -0.002,-0.13162 -0.0315,-0.22432 -0.089,-0.27811 -0.0575,-0.0537 -0.13167,-0.0797 -0.2225,-0.0779 -0.10756,0.002 -0.2151,0.0538 -0.32261,0.15575 -0.10757,0.102 -0.23735,0.24291 -0.38937,0.42274 -0.19748,0.21695 -0.47004,0.37269 -0.81766,0.46723 -0.34767,0.0946 -0.7871,0.16133 -1.31828,0.20025 -0.39199,0.0291 -1.08639,0.05 -2.0832,0.0626 -0.99685,0.0126 -1.9912,0.0203 -2.98307,0.0231 -0.99189,0.003 -1.67641,0.004 -2.05353,0.003 -0.1298,-9.1e-4 -0.21509,-0.0435 -0.25587,-0.12794 -0.0408,-0.0843 -0.0593,-0.20486 -0.0556,-0.36155 l 0,-11.25819 c -0.007,-0.30404 0.0964,-0.45237 0.31149,-0.44499 0.34416,5.9e-4 0.96605,0.009 1.86565,0.0264 0.89957,0.0171 1.79174,0.039 2.67652,0.0659 0.88474,0.0269 1.47695,0.0555 1.77665,0.0857 1.07815,0.13353 1.81423,0.33377 2.20825,0.60073 0.39398,0.26703 0.6517,0.60077 0.77317,1.00123 0.10844,0.28092 0.18075,0.57573 0.21693,0.88441 0.0361,0.30874 0.0528,0.54792 0.0501,0.71754 -0.003,0.2012 0.025,0.35509 0.0834,0.46167 0.0584,0.10664 0.16406,0.16041 0.31705,0.16131 0.15202,-0.006 0.25955,-0.0602 0.32262,-0.1613 0.063,-0.10103 0.10381,-0.21042 0.12237,-0.32818 0.0454,-0.32815 0.0881,-0.82876 0.12793,-1.50184 0.0398,-0.67301 0.0714,-1.15137 0.0946,-1.43508 0.0732,-0.99656 0.14924,-1.69556 0.22806,-2.09701 0.0788,-0.40138 0.12142,-0.66652 0.12793,-0.79541 0.003,-0.114 -0.0139,-0.20856 -0.0501,-0.28368 -0.0362,-0.0751 -0.10849,-0.114 -0.21693,-0.11681 -0.11312,0.005 -0.23179,0.0288 -0.35599,0.0723 -0.12425,0.0436 -0.24291,0.0788 -0.35599,0.10568 -0.18265,0.0445 -0.44037,0.089 -0.77317,0.1335 -0.33283,0.0445 -0.71292,0.089 -1.14028,0.1335 -0.37716,0.0146 -1.35833,0.025 -2.94351,0.0313 -1.58522,0.006 -3.20255,0.0102 -4.85201,0.0115 -1.64949,0.001 -2.75921,0.002 -3.32917,0.002 -0.31706,-9e-4 -0.71755,-0.0102 -1.20147,-0.0278 -0.48393,-0.0176 -1.01791,-0.038 -1.60195,-0.0612 -0.56181,-0.002 -1.15141,-0.009 -1.76883,-0.0222 -0.61742,-0.0129 -1.22928,-0.0204 -1.83557,-0.0222 -0.33282,-0.003 -0.57942,0.0251 -0.73979,0.0834 -0.16039,0.0584 -0.24012,0.16412 -0.23918,0.31705 9.2e-4,0.153 0.0658,0.25868 0.19468,0.31705 0.12886,0.0584 0.31612,0.0863 0.56179,0.0834 0.32262,3e-5 0.64523,0.0112 0.96785,0.0334 0.32261,0.0223 0.57848,0.0557 0.76761,0.10012 0.71661,0.14744 1.20795,0.41999 1.47402,0.81767 0.26606,0.39774 0.41253,0.97066 0.43942,1.71876 0.0426,0.59335 0.0686,1.49816 0.0779,2.71443 0.009,1.21632 0.013,3.45609 0.0111,6.71931 z"
         style="font-weight:bold;fill:#ffffff;font-family:Trajan Pro;-inkscape-font-specification:Trajan Pro Bold"
         id="path3469"
         inkscape:connector-curvature="0" />
      <path
         d="m -277.74742,113.76211 0.1335,0 c 0.48855,0.53679 1.74749,1.91069 3.77683,4.1217 2.02932,2.21105 4.30061,4.57505 6.81388,7.09199 2.39642,2.38348 4.81233,4.8031 7.24773,7.25887 2.43535,2.45578 4.39515,4.39703 5.8794,5.82377 0.24657,0.25494 0.49873,0.47929 0.75648,0.67305 0.25769,0.19375 0.50985,0.29573 0.75648,0.30593 0.19928,0.004 0.34576,-0.10384 0.43943,-0.32262 0.0936,-0.21879 0.13995,-0.57107 0.13906,-1.05685 l 0.48948,-28.07872 c 0.0102,-1.22554 0.13439,-2.12293 0.37268,-2.69218 0.23822,-0.56918 0.66281,-0.93258 1.27378,-1.09022 0.26139,-0.0639 0.49501,-0.10287 0.70085,-0.11681 0.20577,-0.0139 0.41714,-0.0194 0.63411,-0.0167 0.53395,3e-5 0.80094,-0.13347 0.80098,-0.40049 -0.007,-0.1724 -0.1048,-0.28365 -0.29481,-0.33374 -0.19008,-0.05 -0.43297,-0.0723 -0.72866,-0.0667 -1.10505,0.006 -2.0432,0.0278 -2.81447,0.0667 -0.77134,0.039 -1.28678,0.0612 -1.54632,0.0667 -0.48859,-0.006 -1.21356,-0.0278 -2.17488,-0.0667 -0.9614,-0.0389 -2.03122,-0.0612 -3.20949,-0.0667 -0.34029,-0.005 -0.61658,0.0168 -0.82886,0.0668 -0.21233,0.0501 -0.32172,0.16135 -0.32818,0.33375 -0.004,0.13353 0.0482,0.23365 0.15574,0.30037 0.10751,0.0668 0.29292,0.10015 0.55624,0.10012 0.32907,-0.006 0.71658,0.006 1.16253,0.0334 0.44588,0.0279 0.84452,0.10572 1.1959,0.23362 0.52747,0.19193 0.90756,0.57573 1.14028,1.15141 0.23266,0.57573 0.35689,1.52689 0.37268,2.85348 l 0.44499,19.97995 -0.2225,0 c -0.303,-0.29336 -1.03696,-1.05148 -2.20186,-2.27438 -1.16496,-1.22289 -2.45598,-2.57433 -3.87304,-4.05434 -1.41712,-1.47998 -2.65539,-2.75231 -3.71483,-3.817 -2.20573,-2.1969 -4.32079,-4.34438 -6.34519,-6.44244 -2.02443,-2.098 -3.71758,-3.86971 -5.07945,-5.31513 -1.3619,-1.44535 -2.15189,-2.28753 -2.36997,-2.52654 -0.36898,-0.40787 -0.67676,-0.7379 -0.92335,-0.9901 -0.24661,-0.25212 -0.48764,-0.38191 -0.72311,-0.38936 -0.21879,0.007 -0.37083,0.14836 -0.45611,0.42274 -0.0853,0.27444 -0.12609,0.63785 -0.12237,1.09022 l -0.40049,26.34327 c -0.005,1.9014 -0.0955,3.26047 -0.27256,4.0772 -0.17707,0.81674 -0.54604,1.29696 -1.1069,1.44065 -0.31984,0.0871 -0.65915,0.14647 -1.01791,0.17799 -0.35878,0.0315 -0.68696,0.0464 -0.98454,0.0445 -0.22435,-0.002 -0.39864,0.0241 -0.52286,0.0779 -0.12423,0.0538 -0.18727,0.14647 -0.18912,0.27811 0.005,0.19376 0.0955,0.31798 0.27256,0.37268 0.17706,0.0547 0.41253,0.0788 0.70641,0.0723 1.18757,-0.006 2.22773,-0.0278 3.1205,-0.0668 0.89275,-0.0389 1.45455,-0.0612 1.68539,-0.0667 0.41903,0.006 1.0828,0.0278 1.99133,0.0667 0.90851,0.0389 2.08402,0.0612 3.52654,0.0668 0.31516,0.004 0.5636,-0.026 0.74532,-0.089 0.18168,-0.063 0.27439,-0.1817 0.27811,-0.35599 -9.4e-4,-0.13164 -0.0658,-0.22435 -0.19468,-0.27812 -0.12888,-0.0538 -0.31614,-0.0797 -0.5618,-0.0779 -0.36064,0.004 -0.74073,-0.0148 -1.14028,-0.0556 -0.39957,-0.0408 -0.79079,-0.12608 -1.17365,-0.25587 -0.44871,-0.12515 -0.80841,-0.55345 -1.0791,-1.2849 -0.27071,-0.73145 -0.43016,-1.9496 -0.47836,-3.65446 z"
         style="font-weight:bold;fill:#ffffff;font-family:Trajan Pro;-inkscape-font-specification:Trajan Pro Bold"
         id="path3471"
         inkscape:connector-curvature="0" />
    </g>
    <g
       style="fill:#000000"
       transform="matrix(0.96468998,0,0,0.9618294,227.1624,239.43185)"
       id="g5317">
      <polygon
         style="fill:#000000"
         points="5.226,62.299 9.007,62.299 9.007,47.49 2.804,47.49 2.804,50.671 5.226,50.671 "
         id="polygon5319" />
      <polygon
         style="fill:#000000"
         points="27.707,47.49 27.707,50.671 30.128,50.671 30.128,62.299 33.91,62.299 33.91,47.49 "
         id="polygon5321" />
      <polygon
         style="fill:#000000"
         points="16.171,65.123 16.171,68.307 18.592,68.307 18.592,79.933 22.374,79.933 22.374,65.123 "
         id="polygon5323" />
      <polygon
         style="fill:#000000"
         points="16.171,82.37 16.171,85.554 18.592,85.554 18.592,97.18 22.374,97.18 22.374,82.37 "
         id="polygon5325" />
      <polygon
         style="fill:#000000"
         points="27.707,65.123 27.707,68.307 30.128,68.307 30.128,79.933 33.91,79.933 33.91,65.123 "
         id="polygon5327" />
      <path
         style="fill:#000000"
         inkscape:connector-curvature="0"
         d="m 21.594,47.688 c -0.701,-0.3 -1.5,-0.48 -2.262,-0.48 -0.76,0 -1.52,0.161 -2.241,0.442 -2.241,0.899 -3.342,2.799 -3.342,5.182 l 0,4.121 c 0,2.363 1.121,4.244 3.322,5.164 0.72,0.302 1.48,0.46 2.261,0.46 0.841,0 1.681,-0.182 2.441,-0.539 2.082,-0.96 3.022,-2.863 3.022,-5.085 l 0,-4.121 c 0,-2.321 -1.04,-4.202 -3.201,-5.144 z m -0.581,9.368 c 0,1.159 -0.38,2.198 -1.741,2.198 -1.301,0 -1.741,-1.06 -1.741,-2.198 l 0,-4.323 c 0,-1.122 0.44,-2.202 1.741,-2.202 1.361,0 1.741,1.04 1.741,2.202 l 0,4.323 z"
         id="path5329" />
      <polygon
         style="fill:#000000"
         points="89.854,65.123 89.854,68.307 92.277,68.307 92.277,79.933 96.059,79.933 96.059,65.123 "
         id="polygon5331" />
      <polygon
         style="fill:#000000"
         points="89.854,82.37 89.854,85.554 92.277,85.554 92.277,97.18 96.059,97.18 96.059,82.37 "
         id="polygon5333" />
      <path
         style="fill:#000000"
         inkscape:connector-curvature="0"
         d="m 95.278,47.688 c -0.7,-0.3 -1.501,-0.48 -2.261,-0.48 -0.76,0 -1.521,0.161 -2.242,0.442 -2.241,0.899 -3.341,2.799 -3.341,5.182 l 0,4.121 c 0,2.363 1.121,4.244 3.322,5.164 0.72,0.302 1.479,0.46 2.261,0.46 0.84,0 1.68,-0.182 2.441,-0.539 2.082,-0.96 3.021,-2.863 3.021,-5.085 l 0,-4.121 c 0,-2.321 -1.041,-4.202 -3.201,-5.144 z m -0.581,9.368 c 0,1.159 -0.38,2.198 -1.741,2.198 -1.301,0 -1.739,-1.06 -1.739,-2.198 l 0,-4.323 c 0,-1.122 0.438,-2.202 1.739,-2.202 1.361,0 1.741,1.04 1.741,2.202 l 0,4.323 z"
         id="path5335" />
      <polygon
         style="fill:#000000"
         points="69.48,79.933 73.262,79.933 73.262,65.123 67.06,65.123 67.06,68.307 69.48,68.307 "
         id="polygon5337" />
      <polygon
         style="fill:#000000"
         points="78.595,65.123 78.595,68.307 81.016,68.307 81.016,79.933 84.799,79.933 84.799,65.123 "
         id="polygon5339" />
      <path
         style="fill:#000000"
         inkscape:connector-curvature="0"
         d="m 72.482,82.571 c -0.701,-0.298 -1.5,-0.479 -2.261,-0.479 -0.762,0 -1.522,0.159 -2.241,0.44 -2.241,0.9 -3.344,2.801 -3.344,5.181 l 0,4.124 c 0,2.36 1.122,4.244 3.323,5.164 0.719,0.299 1.48,0.46 2.262,0.46 0.841,0 1.68,-0.182 2.439,-0.542 2.082,-0.96 3.022,-2.86 3.022,-5.082 l 0,-4.124 c 0.002,-2.32 -1.038,-4.198 -3.2,-5.142 z m -0.581,9.366 c 0,1.162 -0.379,2.201 -1.741,2.201 -1.3,0 -1.739,-1.06 -1.739,-2.201 l 0,-4.32 c 0,-1.122 0.439,-2.204 1.739,-2.204 1.362,0 1.741,1.043 1.741,2.204 l 0,4.32 z"
         id="path5341" />
      <path
         style="fill:#000000"
         inkscape:connector-curvature="0"
         d="M 8.228,65.324 C 7.527,65.023 6.727,64.845 5.965,64.845 c -0.76,0 -1.52,0.158 -2.239,0.439 -2.242,0.9 -3.343,2.801 -3.343,5.185 l 0,4.121 c 0,2.36 1.121,4.241 3.322,5.164 0.721,0.298 1.481,0.457 2.26,0.457 0.842,0 1.682,-0.179 2.441,-0.539 2.082,-0.961 3.022,-2.86 3.022,-5.082 l 0,-4.121 c 10e-4,-2.324 -1.04,-4.204 -3.2,-5.145 z m -0.582,9.365 c 0,1.162 -0.38,2.201 -1.741,2.201 -1.3,0 -1.74,-1.062 -1.74,-2.201 l 0,-4.323 c 0,-1.119 0.44,-2.198 1.74,-2.198 1.361,0 1.741,1.039 1.741,2.198 l 0,4.323 z"
         id="path5343" />
      <polygon
         style="fill:#000000"
         points="42.637,62.299 46.418,62.299 46.418,47.49 40.215,47.49 40.215,50.671 42.637,50.671 "
         id="polygon5345" />
      <polygon
         style="fill:#000000"
         points="53.582,65.123 53.582,68.307 56.004,68.307 56.004,79.933 59.785,79.933 59.785,65.123 "
         id="polygon5347" />
      <polygon
         style="fill:#000000"
         points="53.582,82.37 53.582,85.554 56.004,85.554 56.004,97.18 59.785,97.18 59.785,82.37 "
         id="polygon5349" />
      <path
         style="fill:#000000"
         inkscape:connector-curvature="0"
         d="m 45.639,65.324 c -0.702,-0.301 -1.501,-0.479 -2.263,-0.479 -0.76,0 -1.52,0.158 -2.24,0.439 -2.242,0.9 -3.342,2.801 -3.342,5.185 l 0,4.121 c 0,2.36 1.121,4.241 3.322,5.164 0.721,0.298 1.481,0.457 2.26,0.457 0.842,0 1.682,-0.179 2.441,-0.539 2.082,-0.961 3.022,-2.86 3.022,-5.082 l 0,-4.121 c 0.001,-2.324 -1.04,-4.204 -3.2,-5.145 z m -0.581,9.365 c 0,1.162 -0.38,2.201 -1.741,2.201 -1.3,0 -1.74,-1.062 -1.74,-2.201 l 0,-4.323 c 0,-1.119 0.44,-2.198 1.74,-2.198 1.361,0 1.741,1.039 1.741,2.198 l 0,4.323 z"
         id="path5351" />
      <path
         style="fill:#000000"
         inkscape:connector-curvature="0"
         d="m 81.751,44.757 1.139,0.001 11.635,0.021 0.425,-0.427 c 2.887,-3.004 4.668,-7.079 4.668,-11.563 0,-8.235 -5.993,-15.094 -13.842,-16.455 C 85.759,16.331 85.743,16.328 85.725,16.327 84.337,8.503 77.496,2.539 69.281,2.539 c -7.739,0 -14.262,5.292 -16.151,12.447 -2.866,-2.308 -6.503,-3.694 -10.459,-3.694 -8.319,0 -15.236,6.114 -16.499,14.085 -2.616,-1.703 -5.735,-2.697 -9.083,-2.697 -9.211,0 -16.706,7.495 -16.706,16.705 0,1.814 0.294,3.562 0.832,5.197 l 10e-4,0.018 0.006,0 5.785,0.01 20.144,0.04 5.785,0.011 7.922,0.017 0.911,0.001 c 0.298,0.016 0.6,0.024 0.902,0.024 l 0,-0.024 1.811,0.004 c 0.014,-0.003 0.029,-0.004 0.044,-0.006 l 6.111,0.016 c 0.559,1.433 1.316,2.764 2.228,3.975 -1.134,1.021 -1.704,2.466 -1.704,4.164 l 0,4.121 c 0,2.363 1.121,4.244 3.322,5.164 0.72,0.302 1.479,0.46 2.261,0.46 0.841,0 1.682,-0.182 2.441,-0.539 2.081,-0.96 3.021,-2.863 3.021,-5.085 l 0,-2.088 c 0.79,0.195 1.602,0.33 2.431,0.408 l 0,1.68 c 0,2.363 1.122,4.244 3.323,5.164 0.719,0.302 1.48,0.46 2.262,0.46 0.841,0 1.68,-0.182 2.439,-0.539 2.082,-0.96 3.022,-2.863 3.022,-5.085 l 0,-4.558 c 0.747,-0.517 1.445,-1.097 2.098,-1.725 l 3.234,0 0,11.628 3.783,0 0,-14.808 -4.441,0 c 0.541,-0.864 1.016,-1.773 1.394,-2.733 z M 30.471,39.438 28.45,39.435 5.729,39.39 c 0,-10e-4 0,-0.004 0,-0.007 0,-6.265 5.097,-11.362 11.361,-11.362 4.293,0 8.036,2.396 9.967,5.916 -0.009,-0.025 -0.018,-0.051 -0.026,-0.078 0.786,2.09 1.981,3.982 3.487,5.58 l -0.047,0 z m 27.954,17.618 c 0,1.159 -0.381,2.198 -1.741,2.198 -1.301,0 -1.741,-1.06 -1.741,-2.198 l 0,-4.323 c 0,-0.536 0.104,-1.059 0.352,-1.463 0.956,0.828 2.005,1.55 3.131,2.146 l 0,3.64 z m 13.476,0 c 0,1.159 -0.379,2.198 -1.741,2.198 -1.3,0 -1.739,-1.06 -1.739,-2.198 l 0,-1.858 c 1.206,-0.16 2.37,-0.451 3.48,-0.855 l 0,2.713 z m -5.693,-7.051 c -5.985,0 -10.896,-4.647 -11.328,-10.521 0,0 0,0 0,-0.003 -0.003,-0.021 -0.006,-0.04 -0.006,-0.061 L 49.52,39.409 c 10e-4,0.02 0.003,0.042 0.005,0.064 L 42.084,39.456 C 36.091,39.144 31.31,34.06 31.31,27.992 c 0.001,-6.259 5.097,-11.354 11.363,-11.354 6.265,0 11.361,5.094 11.361,11.36 l 5.345,0 c 0,-0.312 -0.012,-0.621 -0.027,-0.927 -0.005,-0.088 -0.016,-0.178 -0.021,-0.264 -0.016,-0.223 -0.033,-0.446 -0.059,-0.667 -0.01,-0.083 -0.021,-0.163 -0.031,-0.244 -0.031,-0.243 -0.064,-0.483 -0.105,-0.721 -0.007,-0.042 -0.014,-0.083 -0.02,-0.124 -0.153,-0.833 -0.362,-1.647 -0.632,-2.436 l -0.559,-3.372 c 0,-6.265 5.095,-11.362 11.36,-11.362 5.282,0 9.73,3.623 11,8.514 0.015,-0.003 0.032,-0.005 0.05,-0.007 0.22,0.877 0.338,1.798 0.338,2.745 0,0.886 -0.105,1.751 -0.3,2.579 0.815,-0.185 1.668,-0.288 2.542,-0.288 0.997,0 1.966,0.13 2.887,0.374 4.871,1.281 8.473,5.721 8.473,10.987 0,2.534 -0.835,4.877 -2.244,6.77 L 77.519,39.537 c 0.004,0.011 0.012,0.022 0.015,0.033 -0.092,1.238 -0.378,2.34 -0.837,3.437 -1.714,4.103 -5.771,6.998 -10.489,6.998 z"
         id="path5353" />
    </g>
  </g>
</svg>
